<svg width="98" height="47" viewBox="0 0 98 47" fill="none" xmlns="http://www.w3.org/2000/svg">
<path d="M23.6699 39.1519C28.8989 39.1519 45.3559 39.0789 50.7839 39.1519C50.8889 21.4129 40.6969 30.8119 40.5709 23.8839C40.5709 16.1099 45.4809 7.36891 37.0099 7.35791C29.0779 7.37091 33.8809 16.2429 33.7529 23.8839C33.7529 30.9389 23.6699 21.4129 23.6699 39.1519Z" fill="#BFBFBF"/>
<path d="M46.978 39.1519C52.204 39.1519 68.663 39.0789 74.093 39.1519C74.197 21.4129 64.006 30.8119 63.879 23.8839C63.879 16.1099 68.791 7.36891 60.317 7.35791C52.384 7.37091 57.188 16.2429 57.06 23.8839C57.061 30.9389 46.976 21.4129 46.978 39.1519Z" fill="#BFBFBF"/>
<path d="M70.2861 39.1519C75.5111 39.1519 91.9681 39.0789 97.3991 39.1519C97.5041 21.4129 87.3131 30.8119 87.1851 23.8839C87.1851 16.1099 92.0971 7.36891 83.6231 7.35791C75.6931 7.37091 80.4941 16.2429 80.3641 23.8839C80.3651 30.9389 70.2831 21.4129 70.2861 39.1519Z" fill="#BFBFBF"/>
<path d="M2.97491e-07 39.1519C5.227 39.1519 21.683 39.0789 27.114 39.1519C27.219 21.4129 17.028 30.8119 16.902 23.8839C16.902 16.1099 21.813 7.36891 13.341 7.35791C5.408 7.37091 10.211 16.2429 10.081 23.8839C10.081 30.9389 -0.0019997 21.4129 2.97491e-07 39.1519Z" fill="#BFBFBF"/>
<path d="M29.5142 46.1841C36.9812 46.1841 60.4902 46.0811 68.2482 46.1841C68.3962 20.8411 53.8402 34.2721 53.6572 24.3741C53.6572 13.2701 60.6732 0.785113 48.5702 0.766113C37.2402 0.785113 44.0982 13.4581 43.9162 24.3741C43.9162 34.4551 29.5122 20.8431 29.5142 46.1841Z" fill="#131313" stroke="#131313"/>
</svg>
