<svg width="169" height="169" viewBox="0 0 169 169" fill="none" xmlns="http://www.w3.org/2000/svg">
<g filter="url(#filter0_d_268_39)">
<circle cx="84.5" cy="59.5" r="49.5" fill="#CDD9E6"/>
</g>
<path d="M65.1415 43.4938C66.2387 42.6538 67.7639 42.6538 68.8611 43.4938L81.8864 53.4504C83.5454 54.7183 82.6555 57.3643 80.5713 57.3748H53.4287C51.3471 57.3643 50.4546 54.7183 52.1162 53.4504L65.1415 43.4938ZM67 52.781C67.5221 52.781 68.0229 52.5736 68.3921 52.2044C68.7613 51.8352 68.9688 51.3344 68.9688 50.8123C68.9688 50.2901 68.7613 49.7894 68.3921 49.4202C68.0229 49.0509 67.5221 48.8435 67 48.8435C66.4779 48.8435 65.9771 49.0509 65.6079 49.4202C65.2387 49.7894 65.0312 50.2901 65.0312 50.8123C65.0312 51.3344 65.2387 51.8352 65.6079 52.2044C65.9771 52.5736 66.4779 52.781 67 52.781ZM55.1875 59.9998V67.8748H59.125V59.9998H55.1875ZM61.75 59.9998V67.8748H65.6875V59.9998H61.75ZM68.3125 59.9998V67.8748H72.25V59.9998H68.3125ZM74.875 59.9998V67.8748H78.8125V59.9998H74.875ZM51.25 73.781C51.25 71.9698 52.72 70.4998 54.5312 70.4998H79.4688C81.28 70.4998 82.75 71.9698 82.75 73.781V74.4373C82.75 74.7854 82.6117 75.1192 82.3656 75.3654C82.1194 75.6115 81.7856 75.7498 81.4375 75.7498H52.5625C52.2144 75.7498 51.8806 75.6115 51.6344 75.3654C51.3883 75.1192 51.25 74.7854 51.25 74.4373V73.781Z" fill="#748DA6"/>
<path d="M92.8125 41.5C91.7682 41.5 90.7667 41.9148 90.0283 42.6533C89.2898 43.3917 88.875 44.3932 88.875 45.4375V74.3125C88.875 75.037 89.463 75.625 90.1875 75.625H94.125V68.1875C94.125 67.8394 94.2633 67.5056 94.5094 67.2594C94.7556 67.0133 95.0894 66.875 95.4375 66.875H108.562C108.911 66.875 109.244 67.0133 109.491 67.2594C109.737 67.5056 109.875 67.8394 109.875 68.1875V75.625H113.812C114.161 75.625 114.494 75.4867 114.741 75.2406C114.987 74.9944 115.125 74.6606 115.125 74.3125V58.5625C115.125 57.5182 114.71 56.5167 113.972 55.7783C113.233 55.0398 112.232 54.625 111.188 54.625H109.875V45.4375C109.875 44.3932 109.46 43.3917 108.722 42.6533C107.983 41.9148 106.982 41.5 105.938 41.5H92.8125ZM94.125 49.375C94.125 48.9109 94.3094 48.4658 94.6376 48.1376C94.9658 47.8094 95.4109 47.625 95.875 47.625C96.3391 47.625 96.7842 47.8094 97.1124 48.1376C97.4406 48.4658 97.625 48.9109 97.625 49.375C97.625 49.8391 97.4406 50.2842 97.1124 50.6124C96.7842 50.9406 96.3391 51.125 95.875 51.125C95.4109 51.125 94.9658 50.9406 94.6376 50.6124C94.3094 50.2842 94.125 49.8391 94.125 49.375ZM95.875 59.875C96.3391 59.875 96.7842 60.0594 97.1124 60.3876C97.4406 60.7158 97.625 61.1609 97.625 61.625C97.625 62.0891 97.4406 62.5342 97.1124 62.8624C96.7842 63.1906 96.3391 63.375 95.875 63.375C95.4109 63.375 94.9658 63.1906 94.6376 62.8624C94.3094 62.5342 94.125 62.0891 94.125 61.625C94.125 61.1609 94.3094 60.7158 94.6376 60.3876C94.9658 60.0594 95.4109 59.875 95.875 59.875ZM94.125 55.5C94.125 55.0359 94.3094 54.5908 94.6376 54.2626C94.9658 53.9344 95.4109 53.75 95.875 53.75C96.3391 53.75 96.7842 53.9344 97.1124 54.2626C97.4406 54.5908 97.625 55.0359 97.625 55.5C97.625 55.9641 97.4406 56.4092 97.1124 56.7374C96.7842 57.0656 96.3391 57.25 95.875 57.25C95.4109 57.25 94.9658 57.0656 94.6376 56.7374C94.3094 56.4092 94.125 55.9641 94.125 55.5ZM102 47.625C102.464 47.625 102.909 47.8094 103.237 48.1376C103.566 48.4658 103.75 48.9109 103.75 49.375C103.75 49.8391 103.566 50.2842 103.237 50.6124C102.909 50.9406 102.464 51.125 102 51.125C101.536 51.125 101.091 50.9406 100.763 50.6124C100.434 50.2842 100.25 49.8391 100.25 49.375C100.25 48.9109 100.434 48.4658 100.763 48.1376C101.091 47.8094 101.536 47.625 102 47.625ZM100.25 61.625C100.25 61.1609 100.434 60.7158 100.763 60.3876C101.091 60.0594 101.536 59.875 102 59.875C102.464 59.875 102.909 60.0594 103.237 60.3876C103.566 60.7158 103.75 61.1609 103.75 61.625C103.75 62.0891 103.566 62.5342 103.237 62.8624C102.909 63.1906 102.464 63.375 102 63.375C101.536 63.375 101.091 63.1906 100.763 62.8624C100.434 62.5342 100.25 62.0891 100.25 61.625ZM108.125 59.875C108.589 59.875 109.034 60.0594 109.362 60.3876C109.691 60.7158 109.875 61.1609 109.875 61.625C109.875 62.0891 109.691 62.5342 109.362 62.8624C109.034 63.1906 108.589 63.375 108.125 63.375C107.661 63.375 107.216 63.1906 106.888 62.8624C106.559 62.5342 106.375 62.0891 106.375 61.625C106.375 61.1609 106.559 60.7158 106.888 60.3876C107.216 60.0594 107.661 59.875 108.125 59.875ZM100.25 55.5C100.25 55.0359 100.434 54.5908 100.763 54.2626C101.091 53.9344 101.536 53.75 102 53.75C102.464 53.75 102.909 53.9344 103.237 54.2626C103.566 54.5908 103.75 55.0359 103.75 55.5C103.75 55.9641 103.566 56.4092 103.237 56.7374C102.909 57.0656 102.464 57.25 102 57.25C101.536 57.25 101.091 57.0656 100.763 56.7374C100.434 56.4092 100.25 55.9641 100.25 55.5ZM107.25 75.625V69.5H103.312V75.625H107.25ZM100.688 75.625V69.5H96.75V75.625H100.688Z" fill="#748DA6"/>
<defs>
<filter id="filter0_d_268_39" x="0" y="0" width="169" height="169" filterUnits="userSpaceOnUse" color-interpolation-filters="sRGB">
<feFlood flood-opacity="0" result="BackgroundImageFix"/>
<feColorMatrix in="SourceAlpha" type="matrix" values="0 0 0 0 0 0 0 0 0 0 0 0 0 0 0 0 0 0 127 0" result="hardAlpha"/>
<feOffset dy="25"/>
<feGaussianBlur stdDeviation="17.5"/>
<feComposite in2="hardAlpha" operator="out"/>
<feColorMatrix type="matrix" values="0 0 0 0 0.454902 0 0 0 0 0.552941 0 0 0 0 0.65098 0 0 0 0.12 0"/>
<feBlend mode="normal" in2="BackgroundImageFix" result="effect1_dropShadow_268_39"/>
<feBlend mode="normal" in="SourceGraphic" in2="effect1_dropShadow_268_39" result="shape"/>
</filter>
</defs>
</svg>
