<svg width="169" height="169" viewBox="0 0 169 169" fill="none" xmlns="http://www.w3.org/2000/svg">
<g filter="url(#filter0_d_269_57)">
<circle cx="84.5" cy="59.5" r="49.5" fill="#EDDBFF"/>
</g>
<path d="M86.0401 63.4998C84.8684 65.3276 84.247 67.4538 84.2498 69.6248C84.2498 72.4773 85.2998 75.0848 87.0358 77.0833C85.6446 77.3633 84.1308 77.5033 82.4998 77.5033C76.5148 77.5033 72.0978 75.6256 69.3993 71.8386C68.8186 71.0231 68.5066 70.0468 68.5068 69.0456V67.4356C68.5068 66.3918 68.9215 65.3907 69.6596 64.6526C70.3977 63.9145 71.3988 63.4998 72.4426 63.4998H86.0401ZM95.6248 59.9998C98.1775 59.9998 100.626 61.0139 102.431 62.8189C104.236 64.624 105.25 67.0721 105.25 69.6248C105.25 72.1775 104.236 74.6257 102.431 76.4307C100.626 78.2358 98.1775 79.2498 95.6248 79.2498C93.0721 79.2498 90.624 78.2358 88.8189 76.4307C87.0139 74.6257 85.9998 72.1775 85.9998 69.6248C85.9998 67.0721 87.0139 64.624 88.8189 62.8189C90.624 61.0139 93.0721 59.9998 95.6248 59.9998ZM95.6248 73.5641C95.3348 73.5641 95.0566 73.6793 94.8514 73.8844C94.6463 74.0896 94.5311 74.3678 94.5311 74.6578C94.5311 74.9479 94.6463 75.2261 94.8514 75.4312C95.0566 75.6364 95.3348 75.7516 95.6248 75.7516C95.9149 75.7516 96.1931 75.6364 96.3982 75.4312C96.6034 75.2261 96.7186 74.9479 96.7186 74.6578C96.7186 74.3678 96.6034 74.0896 96.3982 73.8844C96.1931 73.6793 95.9149 73.5641 95.6248 73.5641ZM95.6248 63.2793C93.7926 63.2793 92.3628 64.7108 92.3821 66.7006C92.3844 66.9327 92.4788 67.1543 92.6446 67.3167C92.8103 67.4792 93.0338 67.5692 93.2658 67.5668C93.4979 67.5645 93.7195 67.4701 93.882 67.3044C94.0444 67.1386 94.1344 66.9152 94.1321 66.6831C94.1216 65.6698 94.7621 65.0293 95.6248 65.0293C96.4526 65.0293 97.1193 65.7153 97.1193 66.6918C97.1193 67.0278 97.0231 67.2903 96.7273 67.6736L96.5628 67.8766L96.3878 68.0743L95.9258 68.5818L95.6861 68.8583C95.0158 69.6563 94.7498 70.2443 94.7498 71.1508C94.7498 71.3829 94.842 71.6055 95.0061 71.7696C95.1702 71.9336 95.3928 72.0258 95.6248 72.0258C95.8569 72.0258 96.0795 71.9336 96.2436 71.7696C96.4076 71.6055 96.4998 71.3829 96.4998 71.1508C96.4998 70.7956 96.6031 70.5208 96.9198 70.1183L97.0668 69.9346L97.2436 69.7333L97.7091 69.2258L97.9453 68.9528C98.6068 68.1653 98.8693 67.5826 98.8693 66.6918C98.8693 64.7598 97.4308 63.2793 95.6248 63.2793ZM82.4998 42.5068C84.8205 42.5068 87.0461 43.4287 88.687 45.0697C90.328 46.7106 91.2498 48.9362 91.2498 51.2568C91.2498 53.5775 90.328 55.8031 88.687 57.444C87.0461 59.085 84.8205 60.0068 82.4998 60.0068C80.1792 60.0068 77.9536 59.085 76.3127 57.444C74.6717 55.8031 73.7498 53.5775 73.7498 51.2568C73.7498 48.9362 74.6717 46.7106 76.3127 45.0697C77.9536 43.4287 80.1792 42.5068 82.4998 42.5068Z" fill="#9832FF"/>
<defs>
<filter id="filter0_d_269_57" x="0" y="0" width="169" height="169" filterUnits="userSpaceOnUse" color-interpolation-filters="sRGB">
<feFlood flood-opacity="0" result="BackgroundImageFix"/>
<feColorMatrix in="SourceAlpha" type="matrix" values="0 0 0 0 0 0 0 0 0 0 0 0 0 0 0 0 0 0 127 0" result="hardAlpha"/>
<feOffset dy="25"/>
<feGaussianBlur stdDeviation="17.5"/>
<feComposite in2="hardAlpha" operator="out"/>
<feColorMatrix type="matrix" values="0 0 0 0 0.596078 0 0 0 0 0.196078 0 0 0 0 1 0 0 0 0.12 0"/>
<feBlend mode="normal" in2="BackgroundImageFix" result="effect1_dropShadow_269_57"/>
<feBlend mode="normal" in="SourceGraphic" in2="effect1_dropShadow_269_57" result="shape"/>
</filter>
</defs>
</svg>
