<svg width="188" height="59" viewBox="0 0 188 59" fill="none" xmlns="http://www.w3.org/2000/svg">
<path d="M53.5585 44.6134C53.4134 44.4514 53.3228 44.3073 53.2502 44.1453C53.1777 43.9832 53.2502 43.8212 53.4316 43.6231L55.1909 41.9127C55.3541 41.7687 55.4992 41.7327 55.6443 41.7687C55.7894 41.8047 55.9527 41.8947 56.0978 42.0388C56.3517 42.2908 56.6419 42.5609 56.9684 42.831C57.2948 43.101 57.6394 43.3351 58.0203 43.5511C58.4012 43.7672 58.8002 43.9472 59.2355 44.0733C59.6708 44.1993 60.1424 44.2713 60.614 44.2713C61.14 44.2713 61.5934 44.1993 61.9924 44.0553C62.3914 43.9112 62.736 43.7312 63.0262 43.4971C63.3164 43.2631 63.5341 42.993 63.6792 42.6869C63.8243 42.3808 63.8968 42.0748 63.8968 41.7327C63.8968 41.3186 63.7699 40.9585 63.5159 40.6884C63.262 40.4004 62.9537 40.1663 62.5909 39.9682C62.2282 39.7702 61.8292 39.6082 61.3939 39.4821C60.9586 39.3561 60.5777 39.2481 60.2331 39.158C58.1292 38.5279 56.5149 37.7717 55.4086 36.8535C54.3022 35.9533 53.7399 34.747 53.7399 33.2886C53.7399 32.4964 53.9032 31.7582 54.2478 31.1101C54.5924 30.4619 55.0639 29.8858 55.6806 29.3996C56.2973 28.9315 57.0409 28.5534 57.9115 28.3014C58.7821 28.0493 59.7434 27.9053 60.7953 27.9053C61.938 27.9053 63.0444 28.1753 64.1145 28.7155C65.1664 29.2556 66.0914 29.9038 66.8714 30.696C67.1797 31.02 67.1797 31.3621 66.8532 31.7042L65.4204 33.2346C65.239 33.3966 65.0758 33.4326 64.9307 33.3786C64.7674 33.3246 64.6042 33.2166 64.441 33.0725C64.2233 32.8925 63.9875 32.7125 63.7155 32.4964C63.4434 32.2804 63.1532 32.1003 62.8267 31.9023C62.5003 31.7222 62.1556 31.5782 61.811 31.4521C61.4664 31.3261 61.0855 31.2721 60.7047 31.2721C60.3782 31.2721 60.0336 31.2901 59.6708 31.3441C59.3081 31.3981 58.9816 31.4882 58.7096 31.6502C58.4194 31.7942 58.1836 32.0103 57.9841 32.2804C57.7846 32.5504 57.6939 32.9105 57.6939 33.3606C57.6939 33.6847 57.7845 33.9728 57.9659 34.2248C58.1473 34.4589 58.4194 34.6749 58.7458 34.855C59.0904 35.035 59.4895 35.1971 59.9429 35.3591C60.3963 35.5212 60.9223 35.6652 61.4664 35.8272C62.3552 36.0793 63.1895 36.3854 63.9694 36.6914C64.7493 37.0155 65.4385 37.4116 66.0189 37.8797C66.5993 38.3478 67.0709 38.906 67.4155 39.5361C67.7601 40.1843 67.9415 40.9405 67.9415 41.8407C67.9415 42.7409 67.742 43.5691 67.3429 44.2893C66.9439 45.0275 66.3998 45.6577 65.7287 46.1798C65.0576 46.7019 64.2777 47.098 63.4071 47.3681C62.5184 47.6381 61.6115 47.7822 60.6684 47.7822C59.3081 47.7822 58.0022 47.4941 56.7507 46.9C55.4992 46.3058 54.4654 45.5496 53.5585 44.6134Z" fill="#131313"/>
<path d="M69.9548 41.2114C69.9548 40.2932 70.1362 39.429 70.4808 38.6188C70.8254 37.8086 71.3151 37.0884 71.9318 36.4943C72.5485 35.8821 73.274 35.414 74.0901 35.0719C74.9063 34.7298 75.7951 34.5498 76.7382 34.5498C77.6813 34.5498 78.5701 34.7298 79.3863 35.0719C80.2024 35.414 80.9279 35.9001 81.5265 36.4943C82.1431 37.1064 82.6147 37.8086 82.9774 38.6188C83.3402 39.429 83.5034 40.2932 83.5034 41.2114C83.5034 42.1297 83.3221 42.9939 82.9774 43.8041C82.6147 44.6143 82.1431 45.3165 81.5265 45.9106C80.9098 46.5047 80.2024 46.9729 79.3863 47.333C78.5701 47.693 77.6813 47.8551 76.7382 47.8551C75.7951 47.8551 74.9245 47.675 74.0901 47.333C73.2558 46.9909 72.5485 46.5228 71.9318 45.9106C71.3151 45.3165 70.8254 44.6143 70.4808 43.8041C70.1362 42.9939 69.9548 42.1297 69.9548 41.2114ZM73.4372 41.2295C73.4372 41.6976 73.5098 42.1297 73.6911 42.5438C73.8544 42.9579 74.0901 43.318 74.3803 43.624C74.6705 43.9301 75.0333 44.1822 75.4323 44.3442C75.8313 44.5243 76.2666 44.5963 76.7382 44.5963C77.2098 44.5963 77.6451 44.5063 78.0441 44.3442C78.4431 44.1642 78.7877 43.9301 79.0961 43.624C79.3862 43.318 79.622 42.9579 79.8034 42.5438C79.9848 42.1297 80.0573 41.6976 80.0573 41.2295C80.0573 40.7613 79.9666 40.3292 79.8034 39.9151C79.622 39.501 79.3862 39.1409 79.0961 38.8349C78.8059 38.5288 78.4431 38.2767 78.0441 38.0967C77.6451 37.9166 77.2098 37.8266 76.7382 37.8266C76.2666 37.8266 75.8313 37.9166 75.4323 38.0967C75.0333 38.2767 74.6887 38.5288 74.3803 38.8349C74.0901 39.1409 73.8544 39.501 73.6911 39.9151C73.5098 40.3292 73.4372 40.7613 73.4372 41.2295Z" fill="#131313"/>
<path d="M96.6716 47.5488C96.4176 47.5488 96.2181 47.5128 96.073 47.4408C95.9279 47.3688 95.8373 47.2608 95.7647 47.1167C95.6922 46.9727 95.6377 46.8107 95.6015 46.6306C95.5652 46.4326 95.5108 46.2345 95.4564 46.0005C95.0574 46.4506 94.4769 46.8467 93.7333 47.1888C92.9897 47.5308 92.1916 47.7109 91.3392 47.7109C90.5411 47.7109 89.8338 47.5849 89.199 47.3328C88.5823 47.0807 88.0563 46.7206 87.6392 46.2705C87.222 45.8204 86.9137 45.2623 86.696 44.6501C86.4784 44.02 86.3877 43.3358 86.3877 42.5976V35.5759C86.3877 35.3418 86.4602 35.1438 86.6053 34.9997C86.7504 34.8557 86.9318 34.7837 87.1495 34.7837H89.2897C89.5617 34.7837 89.7612 34.8557 89.8701 34.9817C89.9789 35.1078 90.0333 35.3058 90.0333 35.5399V41.9855C90.0333 42.6876 90.2328 43.2638 90.65 43.6779C91.0671 44.092 91.6113 44.308 92.2823 44.308C92.5544 44.308 92.8809 44.254 93.2255 44.146C93.5701 44.038 93.8966 43.8759 94.1867 43.6959C94.4769 43.4978 94.7309 43.2638 94.9485 42.9937C95.1662 42.7237 95.2569 42.4176 95.2569 42.0755V35.5219C95.2569 35.0358 95.5108 34.8017 96.0186 34.8017H98.1407C98.3765 34.8017 98.576 34.8737 98.703 35.0177C98.8299 35.1618 98.9025 35.3238 98.9025 35.5399V46.7927C98.9025 47.3148 98.6304 47.5668 98.0863 47.5668H96.6716V47.5488Z" fill="#131313"/>
<path d="M105.159 35.5209C105.178 35.6109 105.214 35.7729 105.286 36.025C105.359 36.2771 105.395 36.4391 105.413 36.5291C105.577 36.3131 105.758 36.097 105.976 35.881C106.193 35.6469 106.447 35.4489 106.719 35.2688C106.991 35.0888 107.3 34.9447 107.626 34.8187C107.953 34.6927 108.297 34.6387 108.678 34.6387C108.769 34.6387 108.841 34.6387 108.932 34.6387C109.023 34.6387 109.095 34.6387 109.186 34.6567C109.422 34.6747 109.712 34.7467 110.02 34.8547C110.329 34.9628 110.637 35.0888 110.909 35.2508C111.181 35.3949 111.417 35.5569 111.616 35.7189C111.816 35.881 111.906 36.025 111.906 36.169C111.906 36.2771 111.87 36.3851 111.78 36.5291L110.728 38.2216C110.564 38.4556 110.383 38.5816 110.183 38.5816C110.111 38.5816 110.002 38.5456 109.875 38.4916C109.73 38.4376 109.585 38.3656 109.422 38.2756C109.186 38.0955 108.968 37.9875 108.787 37.9155C108.605 37.8435 108.388 37.8075 108.152 37.8075C107.771 37.8075 107.427 37.8795 107.118 38.0235C106.81 38.1675 106.556 38.3656 106.338 38.5996C106.121 38.8337 105.957 39.1218 105.849 39.4279C105.74 39.7339 105.685 40.022 105.685 40.3281V46.8997C105.685 47.3318 105.45 47.5479 104.978 47.5479H102.802C102.348 47.5479 102.112 47.3318 102.112 46.8997V35.5209C102.112 35.3048 102.185 35.1248 102.33 35.0168C102.475 34.9087 102.62 34.8547 102.802 34.8547H104.47C104.688 34.8547 104.833 34.9267 104.924 35.0708C105.014 35.2148 105.105 35.3408 105.159 35.5209Z" fill="#131313"/>
<path d="M119.705 44.6143C120.231 44.5963 120.684 44.5243 121.065 44.3802C121.446 44.2362 121.845 44.0742 122.262 43.8941C122.443 43.8041 122.552 43.7681 122.625 43.7681C122.752 43.7681 122.879 43.8581 123.024 44.0561L124.148 45.6585C124.221 45.8026 124.257 45.8926 124.257 45.9466C124.257 46.1087 124.203 46.2167 124.094 46.3067C123.985 46.3967 123.894 46.4687 123.804 46.5408C123.223 46.9188 122.607 47.2249 121.917 47.477C121.228 47.729 120.521 47.8551 119.777 47.8551C118.852 47.8551 117.982 47.675 117.165 47.333C116.349 46.9909 115.642 46.5228 115.025 45.9106C114.409 45.3165 113.937 44.6143 113.592 43.8041C113.248 42.9939 113.066 42.1297 113.066 41.2114C113.066 40.2932 113.248 39.429 113.592 38.6188C113.937 37.8086 114.427 37.0884 115.025 36.4943C115.642 35.8821 116.349 35.414 117.165 35.0719C117.982 34.7298 118.852 34.5498 119.777 34.5498C120.485 34.5498 121.156 34.6578 121.79 34.8919C122.425 35.1259 123.042 35.432 123.677 35.8281H123.659C123.804 35.9181 123.913 36.0082 124.003 36.1162C124.094 36.2242 124.13 36.3322 124.13 36.4763C124.13 36.5123 124.13 36.5663 124.112 36.6203C124.112 36.6743 124.076 36.7283 124.04 36.7643L123.024 38.5108C122.988 38.5828 122.933 38.6368 122.861 38.6908C122.788 38.7448 122.697 38.7628 122.607 38.7628C122.534 38.7628 122.389 38.7088 122.189 38.5828C121.899 38.3487 121.518 38.1507 121.083 37.9886C120.648 37.8446 120.213 37.7726 119.795 37.7726C119.306 37.7726 118.852 37.8626 118.435 38.0607C118.018 38.2587 117.655 38.5108 117.347 38.8349C117.038 39.1589 116.803 39.537 116.621 39.9511C116.44 40.3832 116.367 40.8333 116.367 41.3015C116.367 42.2917 116.694 43.1019 117.329 43.7141C117.963 44.2902 118.762 44.6143 119.705 44.6143Z" fill="#131313"/>
<path d="M133.581 44.7562C133.962 44.7742 134.342 44.7202 134.705 44.5941C135.068 44.4681 135.431 44.3241 135.775 44.126C135.92 44.054 136.047 43.982 136.174 43.892C136.301 43.8019 136.41 43.7659 136.519 43.7659C136.682 43.7659 136.809 43.838 136.918 44L137.879 45.5304C137.97 45.6744 138.006 45.7824 138.006 45.8725C138.006 46.0165 137.97 46.1245 137.879 46.2145C137.789 46.3046 137.698 46.3946 137.589 46.4846C137.027 46.8987 136.428 47.2228 135.775 47.4748C135.122 47.7089 134.415 47.8349 133.671 47.8349C132.765 47.8349 131.912 47.6549 131.096 47.3128C130.28 46.9707 129.572 46.5026 128.974 45.8905C128.375 45.2783 127.886 44.5941 127.541 43.7659C127.178 42.9557 126.997 42.0915 126.997 41.1733C126.997 40.2731 127.178 39.4269 127.523 38.6167C127.867 37.8065 128.339 37.1043 128.938 36.4921C129.536 35.88 130.225 35.3939 131.005 35.0338C131.785 34.6737 132.619 34.4937 133.508 34.4937C134.342 34.4937 135.14 34.6557 135.884 34.9618C136.628 35.2678 137.299 35.7 137.861 36.2401C138.423 36.7802 138.877 37.4104 139.203 38.1305C139.53 38.8507 139.693 39.6069 139.693 40.4351C139.693 41.1193 139.639 41.6054 139.53 41.9115C139.421 42.2176 139.167 42.3616 138.786 42.3616H130.642C130.679 42.7397 130.788 43.0818 130.987 43.3698C131.187 43.6579 131.422 43.91 131.694 44.126C131.966 44.3421 132.293 44.4861 132.619 44.5941C132.928 44.7022 133.254 44.7562 133.581 44.7562ZM130.624 39.841H136.247C136.211 39.1928 135.92 38.6347 135.394 38.1666C134.868 37.7164 134.197 37.4824 133.417 37.4824C133.109 37.4824 132.783 37.5364 132.474 37.6624C132.166 37.7885 131.876 37.9505 131.604 38.1666C131.35 38.3826 131.132 38.6347 130.951 38.9227C130.788 39.2108 130.679 39.5169 130.624 39.841Z" fill="#131313"/>
<path d="M143.447 46.8992V28.9128C143.447 28.4807 143.647 28.2646 144.046 28.2646H146.349C146.785 28.2646 147.002 28.4807 147.002 28.9128V36.1866C147.365 35.7185 147.818 35.3404 148.344 35.0523C148.87 34.7643 149.541 34.6202 150.321 34.6202C151.21 34.6202 152.026 34.8003 152.788 35.1423C153.532 35.4844 154.185 35.9526 154.711 36.5647C155.237 37.1588 155.654 37.861 155.962 38.6532C156.27 39.4454 156.415 40.3096 156.415 41.2279C156.415 42.1281 156.252 42.9743 155.944 43.7845C155.636 44.5947 155.2 45.2788 154.656 45.873C154.112 46.4671 153.477 46.9353 152.734 47.2773C151.99 47.6194 151.192 47.7995 150.321 47.7995C149.487 47.7995 148.78 47.6554 148.236 47.3674C147.673 47.0793 147.184 46.6292 146.748 45.999C146.712 46.1971 146.676 46.3591 146.639 46.5031C146.603 46.6472 146.567 46.8092 146.531 46.9533C146.44 47.2593 146.259 47.4394 145.95 47.4754C145.66 47.5114 145.352 47.5294 145.061 47.5294H144.064C143.647 47.5114 143.447 47.2953 143.447 46.8992ZM146.658 41.2819C146.658 41.75 146.748 42.1821 146.911 42.6142C147.075 43.0283 147.311 43.3884 147.601 43.6945C147.891 44.0005 148.217 44.2346 148.616 44.4146C148.997 44.5947 149.396 44.6847 149.813 44.6847C150.249 44.6847 150.648 44.5947 151.029 44.4146C151.41 44.2346 151.736 43.9825 152.008 43.6765C152.28 43.3704 152.516 42.9923 152.679 42.5782C152.842 42.1641 152.933 41.714 152.933 41.2459C152.933 40.7777 152.861 40.3276 152.697 39.9135C152.534 39.4814 152.335 39.1213 152.063 38.8153C151.79 38.5092 151.464 38.2571 151.101 38.0771C150.72 37.897 150.321 37.807 149.904 37.807C149.469 37.807 149.052 37.897 148.671 38.0771C148.29 38.2571 147.945 38.5092 147.655 38.8153C147.365 39.1213 147.129 39.4994 146.948 39.9135C146.766 40.3456 146.694 40.7777 146.694 41.2459V41.2819H146.658Z" fill="#131313"/>
<path d="M168.332 46.8461C168.296 46.6661 168.278 46.54 168.26 46.414C168.241 46.306 168.223 46.1619 168.187 45.9819C168.024 46.198 167.861 46.432 167.661 46.6661C167.462 46.9001 167.244 47.0802 166.972 47.2422C166.718 47.4042 166.41 47.5483 166.065 47.6383C165.72 47.7283 165.303 47.8003 164.814 47.8003H164.759C163.834 47.8003 162.982 47.6383 162.202 47.2962C161.422 46.9541 160.751 46.486 160.207 45.8919C159.644 45.2977 159.209 44.5956 158.901 43.8034C158.592 43.0112 158.429 42.147 158.429 41.2107C158.429 40.2745 158.574 39.4103 158.883 38.6001C159.191 37.7899 159.626 37.1057 160.17 36.5116C160.733 35.9174 161.404 35.4673 162.165 35.1252C162.945 34.7831 163.798 34.6211 164.741 34.6211C165.666 34.6211 166.391 34.8011 166.899 35.1612C167.407 35.5213 167.879 35.9534 168.278 36.4575L168.532 35.4673C168.604 35.1792 168.677 34.9812 168.767 34.8912C168.858 34.8011 169.021 34.7471 169.257 34.7471L170.726 34.8011C170.926 34.8011 171.089 34.8732 171.252 34.9992C171.416 35.1252 171.488 35.3053 171.488 35.5033V46.9001C171.488 47.1162 171.416 47.2602 171.252 47.3862C171.089 47.4943 170.926 47.5483 170.726 47.5483H169.058C168.804 47.5483 168.622 47.4763 168.514 47.3502C168.441 47.2242 168.368 47.0442 168.332 46.8461ZM161.821 41.2287C161.821 41.7148 161.893 42.165 162.039 42.5791C162.184 42.9932 162.401 43.3532 162.673 43.6773C162.945 43.9834 163.29 44.2355 163.671 44.3975C164.052 44.5776 164.487 44.6496 164.959 44.6496C165.938 44.6496 166.7 44.3255 167.28 43.6773C167.861 43.0292 168.133 42.219 168.133 41.2467C168.133 40.7786 168.06 40.3285 167.915 39.9144C167.77 39.4823 167.57 39.1222 167.28 38.7981C167.008 38.474 166.664 38.222 166.283 38.0419C165.902 37.8619 165.448 37.7719 164.94 37.7719C164.469 37.7719 164.034 37.8619 163.653 38.0419C163.254 38.222 162.927 38.474 162.655 38.7981C162.383 39.1222 162.184 39.4823 162.02 39.8964C161.893 40.3105 161.821 40.7606 161.821 41.2287Z" fill="#131313"/>
<path d="M186.795 38.1501C186.468 37.4299 186.033 36.7997 185.453 36.2596C184.89 35.7195 184.219 35.3054 183.476 34.9813C182.732 34.6752 181.934 34.5132 181.1 34.5132C180.211 34.5132 179.377 34.6932 178.597 35.0533C177.817 35.4134 177.128 35.8995 176.529 36.5117C175.931 37.1238 175.459 37.844 175.114 38.6362C174.77 39.4284 174.588 40.2926 174.588 41.1928C174.588 42.1111 174.77 42.9753 175.133 43.7855C175.495 44.5957 175.967 45.2978 176.565 45.91C177.164 46.5221 177.871 46.9723 178.687 47.3323C179.504 47.6924 180.356 47.8545 181.263 47.8545C182.007 47.8545 182.714 47.7284 183.367 47.4944C184.02 47.2603 184.618 46.9182 185.181 46.5041C185.289 46.4141 185.38 46.3241 185.471 46.2341C185.561 46.144 185.598 46.018 185.598 45.892C185.598 45.802 185.561 45.6939 185.471 45.5499L184.51 44.0195C184.401 43.8575 184.274 43.7855 184.11 43.7855C184.002 43.7855 183.893 43.8215 183.766 43.9115C183.639 44.0015 183.512 44.0735 183.367 44.1456C183.022 44.3436 182.659 44.4876 182.297 44.6137C181.934 44.7397 181.553 44.7937 181.172 44.7757C180.864 44.7757 180.537 44.7217 180.193 44.6137C179.848 44.5056 179.54 44.3616 179.268 44.1456C178.996 43.9295 178.76 43.6954 178.56 43.3894C178.361 43.1013 178.252 42.7592 178.216 42.3811H186.36C186.74 42.3811 186.994 42.2371 187.103 41.931C187.212 41.6249 187.266 41.1388 187.266 40.4546C187.285 39.6264 187.121 38.8703 186.795 38.1501ZM178.216 39.8425C178.27 39.5184 178.379 39.2123 178.56 38.9243C178.742 38.6362 178.959 38.3841 179.213 38.1681C179.467 37.952 179.758 37.79 180.084 37.664C180.392 37.5379 180.719 37.4839 181.027 37.4839C181.807 37.4839 182.478 37.718 183.004 38.1681C183.53 38.6362 183.82 39.1943 183.857 39.8425H178.216Z" fill="#131313"/>
<path d="M184.148 29.0208L182.951 31.7395C182.806 32.0996 182.588 32.2796 182.261 32.2796H180.375C180.194 32.2796 180.085 32.2616 180.031 32.2076C179.976 32.1536 179.958 32.0636 179.958 31.9556C179.958 31.8835 179.976 31.8115 179.994 31.7395C180.012 31.6675 180.049 31.5775 180.085 31.4514L181.228 28.8048C181.427 28.4447 181.663 28.2646 181.935 28.2646H183.894C184.13 28.2646 184.257 28.3547 184.257 28.5167C184.275 28.6607 184.22 28.8228 184.148 29.0208Z" fill="url(#paint0_linear_33_924)"/>
<path d="M29.2361 18.9018C26.6062 18.5597 23.9944 18.8118 21.5458 19.55L23.3959 5.34448L20.6934 5.00239C15.8507 4.37224 11.0262 5.66856 7.16292 8.63929C3.29967 11.61 0.814852 15.8951 0.180045 20.7203C-1.10771 30.6587 5.984 39.805 16.014 41.0833C16.812 41.1913 17.61 41.2273 18.3899 41.2273C20.2037 41.2273 21.9993 40.9393 23.7042 40.4171L21.8542 54.6226L24.5566 54.9647C25.3547 55.0727 26.1527 55.1087 26.9326 55.1087C30.9591 55.1087 34.8587 53.7944 38.0871 51.3098C41.9685 48.3391 44.4352 44.054 45.07 39.2288C46.3577 29.3084 39.2479 20.1801 29.2361 18.9018ZM5.56684 21.4044C6.00213 18.0196 7.74332 14.9949 10.4821 12.9063C12.4772 11.376 14.8169 10.4937 17.2654 10.2777L15.6693 22.5567C12.5134 24.9873 10.3007 28.3001 9.26686 32.0631C6.52811 29.3624 5.04085 25.4914 5.56684 21.4044ZM16.7032 35.718C15.8144 35.6099 14.962 35.4119 14.1458 35.1238C14.6174 31.811 16.3404 28.8583 19.0248 26.8058C21.7454 24.7173 25.1189 23.817 28.5469 24.2491C29.4356 24.3572 30.288 24.5552 31.1042 24.8433C30.6327 28.1561 28.9096 31.1088 26.2253 33.1613C23.4865 35.2499 20.113 36.1681 16.7032 35.718ZM39.6651 38.5627C39.2298 41.9475 37.4886 44.9722 34.7498 47.0608C32.7547 48.5911 30.415 49.4734 27.9665 49.6894L29.5626 37.4104C32.7185 34.9798 34.9312 31.667 35.965 27.904C38.7038 30.6047 40.191 34.4937 39.6651 38.5627Z" fill="url(#paint1_linear_33_924)"/>
<path d="M9.43081 58.6562C9.06806 58.6562 8.70531 58.6382 8.34257 58.5842C3.75381 57.99 0.489088 53.813 1.08762 49.2579C1.68615 44.7027 5.89402 41.462 10.4828 42.0561C15.0715 42.6502 18.3363 46.8273 17.7377 51.3824C17.4475 53.5969 16.323 55.5594 14.5455 56.9098C13.0583 58.062 11.2808 58.6562 9.43081 58.6562ZM9.41267 47.3854C7.94354 47.3854 6.67393 48.4657 6.47442 49.942C6.27491 51.5444 7.41756 53.0208 9.03178 53.2188C9.81169 53.3269 10.5916 53.1108 11.2083 52.6247C11.8249 52.1386 12.2421 51.4544 12.3328 50.6802C12.5323 49.0778 11.3896 47.6015 9.77542 47.4034C9.66659 47.3854 9.53963 47.3854 9.41267 47.3854Z" fill="#BC56FC"/>
<path d="M35.9476 17.0302C35.5849 17.0302 35.2222 17.0122 34.8594 16.9582C30.2707 16.364 27.0059 12.187 27.6045 7.63188C27.8947 5.41733 29.0192 3.45485 30.7966 2.10451C32.5741 0.736175 34.7687 0.160032 36.9996 0.430099C41.5884 1.02425 44.8531 5.20128 44.2545 9.7564C43.7286 13.9514 40.1011 17.0302 35.9476 17.0302ZM35.9295 5.75941C35.2766 5.75941 34.6599 5.97547 34.1339 6.37156C33.5172 6.85768 33.1001 7.54185 33.0094 8.31604C32.8099 9.91844 33.9525 11.3948 35.5668 11.5929C37.1629 11.8089 38.6682 10.6566 38.8859 9.05422C39.0854 7.45183 37.9428 5.97547 36.3285 5.77742C36.1834 5.75941 36.0565 5.75941 35.9295 5.75941Z" fill="#BC53FF"/>
<defs>
<linearGradient id="paint0_linear_33_924" x1="179.951" y1="30.2766" x2="184.27" y2="30.2766" gradientUnits="userSpaceOnUse">
<stop stop-color="#F1A0AD"/>
<stop offset="0.1538" stop-color="#E087C7"/>
<stop offset="0.3418" stop-color="#D070E0"/>
<stop offset="0.5394" stop-color="#C560F1"/>
<stop offset="0.7508" stop-color="#BE56FC"/>
<stop offset="1" stop-color="#BC53FF"/>
</linearGradient>
<linearGradient id="paint1_linear_33_924" x1="13.3255" y1="17.1197" x2="39.4038" y2="53.7678" gradientUnits="userSpaceOnUse">
<stop stop-color="#F1A0AD"/>
<stop offset="0.1538" stop-color="#E087C7"/>
<stop offset="0.3418" stop-color="#D070E0"/>
<stop offset="0.5394" stop-color="#C560F1"/>
<stop offset="0.7508" stop-color="#BE56FC"/>
<stop offset="1" stop-color="#BC53FF"/>
</linearGradient>
</defs>
</svg>
