<svg width="170" height="174" viewBox="0 0 170 174" fill="#2A683C" xmlns="http://www.w3.org/2000/svg">
<path d="M168.896 94.9532C168.349 94.7298 167.857 94.4521 167.232 94.3061C167.144 93.4491 166.666 93.5715 166.123 93.1043C165.855 92.8736 165.759 92.4911 165.568 92.3648C165.296 92.1841 164.865 92.2446 164.644 92.0875C164.276 91.8259 163.562 90.8842 163.535 90.516C163.463 89.5515 165.29 88.8281 165.476 87.7427C165.534 87.4018 165.562 86.4412 164.922 86.1712C163.84 86.3176 164.363 89.0088 163.073 88.852C161.93 88.7133 162.615 86.8999 162.888 86.0787C163.965 85.6508 165.055 84.9818 164.46 83.3979C165.215 82.6434 166.029 81.9477 167.51 81.9189C168.397 83.2431 166.442 83.8605 166.216 84.9694C166.727 85.1824 167.336 84.9155 167.88 84.877C168.059 84.5319 168.101 84.0504 168.065 83.4904C168.7 83.0517 169.697 82.1835 169.174 81.1793C167.506 81.5036 166.596 80.5965 165.753 79.8851C165.327 79.525 164.86 79.2265 164.737 78.8683C164.283 77.5487 165.583 76.6435 165.661 75.1706C165.189 74.8717 164.334 74.9572 163.719 74.8008C163.248 74.9453 163.304 75.6178 162.888 75.8177C161.73 76.1039 159.755 76.4933 158.82 75.7253C158.823 75.3898 158.768 74.9953 159.005 74.8933C159.8 74.5481 160.257 75.2915 161.131 75.1706C161.274 74.4588 160.784 73.6176 160.946 72.5822C161.218 72.2375 161.504 71.9078 162.056 71.8427C162.527 71.7718 162.267 72.4328 162.703 72.3973C163.292 71.8119 164.164 71.8072 165.291 71.9351C165.217 71.1524 165.563 70.7896 165.661 70.1787C165.131 69.7654 164.302 70.1745 163.535 70.0863C163.138 69.9596 163.183 69.3899 162.795 69.2543C162.28 69.6002 161.735 70.3104 160.762 69.9014C160.516 69.0274 159.821 68.2155 159.467 67.2206C159.399 67.0276 159.528 66.7911 159.467 66.5735C159.431 66.4425 159.087 66.2149 159.006 65.9264C158.954 65.7419 159.066 65.4796 159.006 65.3717C158.799 65.0039 158.453 64.9773 158.358 64.6322C158.189 64.0128 158.283 63.0796 158.635 62.5985C160.36 62.1994 159.229 64.6549 160.577 64.6322C161.008 63.9489 160.263 63.2213 160.299 62.4136C160.323 61.8909 160.768 61.3235 160.854 60.6572C160.994 59.5702 160.525 58.4001 161.039 57.7915C162.229 57.7106 162.689 58.3592 163.165 58.9932C163.077 59.675 162.719 60.0883 162.795 60.9345C162.506 61.077 162.129 61.1314 161.871 61.3043C161.499 61.988 161.916 62.7329 162.518 62.9682C162.855 62.4733 163.561 62.347 164.275 62.2287C164.539 60.9765 163.863 59.192 164.552 58.0688C164.329 56.9722 163.337 56.683 162.703 55.9427C162.631 55.8579 162.676 55.5664 162.611 55.4805C162.238 54.9847 161.848 55.0645 161.871 54.556C161.915 53.5969 163.165 53.825 164.182 54.0938C164.24 53.8431 164.569 53.8639 164.552 53.5392C164.038 51.658 159.397 54.011 158.913 52.1525C158.716 51.3961 159.271 51.3129 159.467 50.7659C159.686 49.531 158.869 47.7866 159.93 47.5304C160.254 47.4523 160.638 47.7916 161.039 47.8078C161.619 47.8313 162.045 47.4746 162.703 47.6229C162.572 46.7327 162.786 46.0656 162.333 45.4967C162.02 45.5225 161.802 45.6439 161.409 45.5892C160.728 47.6641 157.866 46.5244 156.232 46.0514C156.19 45.4852 156.574 45.345 156.602 44.8496C155.023 44.4194 152.974 43.988 153.459 41.799C155.085 41.514 156.696 41.2151 157.619 40.2275C157.49 39.7268 156.818 39.8662 156.325 39.9502C156.031 39.4734 155.62 39.1151 155.031 38.9333C154.951 38.0578 154.168 37.8857 154.384 36.7147C155.593 35.4806 155.913 37.4943 156.787 37.7316C156.808 37.6596 156.864 37.6241 156.972 37.6392C157.274 37.3379 156.953 36.4713 157.064 35.7903C156.879 35.4209 156.347 35.3982 156.232 34.9583C156.447 33.2666 156.137 31.0349 154.568 32.0002C153.758 33.0536 155.095 34.1934 154.568 35.1432C154.353 35.1432 154.137 35.1432 153.921 35.1432C153.975 34.1021 152.911 33.7192 152.627 32.9246C152.367 32.1966 152.646 31.3512 151.98 30.706C151.603 30.5897 151.006 30.6941 150.871 30.3362C150.707 30.1614 150.803 29.7257 150.778 29.4118C150.464 29.0178 150.108 28.6642 149.391 28.6723C148.762 28.9573 149.074 29.812 148.929 30.4287C148.44 30.4244 147.886 30.4857 147.728 30.1514C147.844 28.9831 147.831 27.5684 146.618 27.4705C146.023 27.7995 146.435 29.1364 145.324 28.9496C143.916 27.0611 143.556 24.1234 142.458 21.924C142.065 21.8693 141.847 21.9907 141.534 22.0165C141.34 22.2533 141.254 22.5981 141.165 22.9409C140.685 22.9802 140.631 23.6238 140.24 24.0502C140.115 24.1865 139.828 24.1854 139.686 24.3275C139.046 24.9669 138.409 26.4421 137.375 26.1763C136.21 25.8767 137.714 23.9223 138.392 23.9577C138.829 22.7618 139.527 21.827 140.887 21.5543C140.76 19.7952 141.445 17.9617 141.258 16.7473C140.215 16.9075 140.255 18.5353 138.854 18.0415C138.59 17.3805 138.674 16.3725 138.022 16.1002C137.519 16.8902 136.534 16.9537 135.711 16.3775C135.026 17.0096 135.178 18.0515 135.341 19.1508C135.122 19.3942 134.974 19.7081 134.602 19.7979C133.67 19.004 133.705 17.2438 131.828 17.3944C131.248 17.6151 131.271 18.4393 131.089 19.0583C130.609 19.1642 130.252 19.3919 129.61 19.3356C129.03 18.7136 128.44 18.1023 128.223 17.117C127.531 17.1255 127.349 16.4264 127.021 16.1002C126.767 15.8475 126.294 15.7562 126.097 15.5455C125.867 15.3002 125.163 14.3342 125.173 13.974C125.2 12.9452 126.718 13.293 126.467 11.8478C125.555 11.6137 123.915 11.3941 123.139 11.8478C122.915 12.1475 123.077 12.8335 122.677 12.9572C122.162 13.253 121.304 12.6752 121.105 13.3269C122.631 14.5094 120.612 17.3262 118.979 16.7473C118.896 15.8017 119.506 15.5494 119.533 14.7135C120.25 14.6908 120.437 14.1381 120.735 13.6967C120.312 13.0407 120.287 11.9873 120.273 10.9234C120.614 10.6792 121.181 10.6611 121.567 10.4612C121.73 9.82298 122.137 9.42933 122.584 9.07459C122.593 7.57048 123.282 6.26551 123.508 5.28447C122.339 4.70324 119.953 4.32076 118.424 5.00714C117.653 5.35303 117.288 5.88726 116.483 5.93156C115.56 5.98202 114.632 5.74513 113.894 5.37691C113.72 4.3092 114.394 4.08965 114.264 3.06586C113.766 3.42022 112.216 3.29388 111.583 3.62051C111.759 4.60116 111.604 5.7097 111.306 6.48621C111.443 6.90297 111.987 6.91452 112.045 7.41063C111.343 8.0635 110.474 8.55036 109.272 8.70482C108.253 7.86436 108.73 5.53675 110.012 5.37691C109.873 4.54762 110.527 4.16514 110.289 3.52806C109.282 3.09051 107.924 3.32662 106.869 3.52806C106.467 4.22793 106.751 5.53753 106.869 6.30133C106.656 6.55092 106.371 6.7281 105.852 6.67109C105.584 6.0525 104.392 5.60262 103.725 6.20888C103.492 6.81746 103.82 8.11011 103.725 8.79726C102.546 9.41238 101.486 8.58233 100.952 7.96528C101.026 6.99734 100.512 6.61833 100.213 6.024C99.1252 5.71201 98.3001 4.68745 98.1792 3.71295C97.9558 4.04459 97.655 4.29803 97.0695 4.2676C96.4016 3.83197 96.7864 2.6048 96.33 2.14144C95.5558 2.84631 95.6274 4.39664 95.1286 5.37691C95.2784 5.63266 95.9382 5.75939 95.9602 6.30133C96.006 7.41333 94.5755 6.97076 93.6491 7.22575C93.1619 7.36017 92.7617 7.81121 92.5398 7.87284C92.3091 7.93716 91.9555 7.83971 91.7079 7.87284C91.2541 7.93408 90.9075 8.23298 90.5065 8.33505C89.9287 8.48219 89.366 8.39514 88.935 8.61238C88.3757 8.89433 88.1943 9.38426 87.7329 9.53679C86.736 9.8665 86.6732 9.00795 86.4391 8.61238C86.3932 9.57262 85.4615 10.1431 84.8675 10.0914C83.6381 9.98475 83.6689 7.63866 82.6489 7.31819C81.1005 7.13176 79.6993 7.07553 79.2286 5.83911C78.9748 5.17199 79.2301 4.31113 78.7664 3.62051C79.5286 3.08858 79.6758 1.94153 80.5228 1.49434C80.4927 1.15462 80.6017 0.675845 80.4303 0.47748C79.9462 0.485954 79.598 0.631167 79.0437 0.569924C78.7136 0.530251 78.9798 -0.105673 78.4891 0.0152717C78.6705 1.10647 78.4563 2.58747 78.6739 3.71295C77.8643 3.95138 77.2596 4.39394 76.178 4.36004C76.156 4.22831 76.0259 4.20405 75.9931 4.08272C75.7428 3.09282 76.6398 3.25036 76.5478 2.41877C75.8914 1.97389 74.167 2.4307 73.3123 1.95655C73.2695 1.42848 72.9672 0.766361 72.4803 1.21702C72.5809 1.70696 72.1352 2.53046 72.2958 3.06586C72.6101 3.27501 73.1243 3.28502 73.4976 3.43563C73.8477 4.19481 74.5942 4.55802 75.4389 4.82225C76.2238 6.3175 77.2249 7.59667 79.4139 7.68795C79.2078 9.02644 76.7296 7.93139 75.7162 8.33505C75.3295 8.62663 74.7194 8.69442 74.1447 8.79726C74.0861 10.1585 73.5985 11.4711 72.3883 11.9403C71.9114 11.5852 72.114 10.551 72.0185 9.81412C71.6795 9.3211 71.0779 9.09076 71.1865 8.15016C71.5586 7.67216 72.2111 8.04347 72.9429 7.96528C73.5588 6.59329 72.0971 5.90922 71.0941 5.56179C70.7455 5.79867 70.9982 6.6372 70.6319 6.85598C70.0895 6.92954 69.4729 6.91722 68.6906 6.94842C67.9846 6.29863 67.059 5.86839 66.6569 4.9147C66.1731 5.29371 65.6693 5.6523 65.2702 6.11644C65.6832 6.60253 65.5722 7.7854 65.0854 8.15016C62.9642 8.40322 61.1442 6.25626 63.0516 5.00714C62.4149 4.76448 62.237 3.80077 61.6646 3.71295C60.7853 3.57814 60.0453 5.44855 58.614 5.09958C58.0971 5.50709 57.6542 5.98856 57.4123 6.67109C57.7455 7.25155 58.7485 7.48227 59.446 7.41063C59.6228 6.3903 60.1559 5.91731 60.6478 5.37691C60.9239 5.07339 61.0133 4.30227 61.6646 4.63737C62.004 5.90883 61.157 6.77355 61.0175 7.87284C61.5236 8.42903 62.5759 7.98531 63.3286 7.96528C63.5158 8.53149 63.9248 9.32264 63.7908 9.90656C62.2312 9.52486 59.7984 10.0163 58.9838 8.8897C58.7589 9.28104 58.2963 9.43473 58.1518 9.90656C59.3104 10.2058 59.8289 12.1568 57.6896 11.7554C57.239 11.4207 57.3206 10.5922 56.6724 10.6461C55.075 10.779 57.1635 12.2165 57.227 12.4949C57.4801 13.6027 56.5044 13.2915 56.2102 14.1589C56.6858 14.3765 56.4474 15.0864 56.6724 15.3606C57.4547 15.4331 58.4538 15.2971 58.891 15.9153C59.0416 17.1505 59.0963 19.0741 57.6892 19.0583C57.0964 18.7883 57.2043 17.8173 57.0417 17.117C56.7775 16.8882 56.2294 16.9433 55.84 16.8397C55.436 15.8036 54.4152 15.2902 54.8231 13.6967C54.1264 13.0065 53.3895 12.3567 52.4196 11.9403C52.1389 10.8129 51.8565 9.05378 50.5708 9.44435C49.8336 9.66852 50.0489 10.9519 50.1086 11.663C50.5088 12.0027 51.1116 12.1394 51.1258 12.8647C51.424 13.1212 51.9909 13.1085 52.3276 13.3269C52.6176 13.8076 52.638 14.5572 52.6974 15.2682C52.5814 15.7381 52.0684 15.8101 52.1427 16.4699C52.7574 16.9545 53.5871 16.5008 53.8067 17.3019C54.0266 18.105 53.2012 19.1454 52.6974 19.613C53.8899 20.5251 53.1962 22.1293 51.8654 22.1089C51.4147 22.102 51.1613 21.6883 50.6636 21.5543C50.5207 21.5157 50.2681 21.6621 50.109 21.6467C48.7844 21.5177 47.3465 21.2866 46.4113 21.6467C46.2056 21.421 46.0727 21.1225 46.134 20.6298C47.246 20.3421 47.9239 19.4539 49.3691 19.9827C49.6529 20.2231 49.567 20.8324 49.9237 20.9996C50.2935 20.5374 51.1382 20.5501 51.033 19.613C50.4915 19.0306 48.4092 19.8017 47.6127 19.2432C47.3866 18.5969 48.0957 18.6862 48.0749 18.3188C48.0575 18.0091 47.1204 17.8127 47.4278 16.9322C49.3167 16.3478 49.5898 19.0298 51.2179 18.4112C51.2287 17.815 51.0203 17.4379 50.7557 17.117C50.3771 17.0273 50.1633 17.3458 49.9237 17.117C49.4141 15.8752 51.2568 13.5573 49.1842 13.4194C48.8213 13.8897 48.9446 14.3195 48.4446 14.6211C48.0498 14.8591 47.2756 14.5525 47.1505 15.1758C47.5899 15.9738 47.0626 16.9218 46.3185 17.3019C46.2769 18.0819 46.5199 19.2058 45.9487 19.7054C45.4145 19.7462 45.4773 19.1904 45.2092 18.9659C44.1072 18.6966 42.6732 16.6787 44.4696 16.1926C44.5266 14.1905 42.6963 13.7333 41.6039 14.9909C41.1802 16.5112 42.6709 17.9914 41.3266 19.3356C40.7904 19.3784 40.3552 19.321 40.1249 19.0583C39.9188 17.9452 39.6977 16.6984 39.8475 15.7304C39.4454 15.6326 38.4948 15.7138 37.9987 15.8228C38.1327 16.3359 38.8965 16.2188 39.108 16.6548C38.8445 17.8909 38.7128 18.7159 38.8307 20.2601C38.3642 21.0262 37.7464 21.6409 37.7214 22.8484C37.0847 23.3588 36.3871 24.2782 36.4272 25.1595C37.0943 25.6752 37.3547 24.8175 37.9987 24.42C39.7875 23.3157 41.7133 24.5197 40.5871 26.3612C41.0004 26.8908 41.9233 26.3886 42.5284 26.6386C42.615 27.083 42.7013 27.2726 42.6208 27.563C41.9271 30.0678 38.6473 25.2138 37.9987 27.3781C38.5002 28.2374 38.8965 31.2907 37.7214 31.4455C37.0065 31.5399 35.8637 29.948 35.4103 29.4118C34.9219 28.8341 33.9197 28.1669 34.1161 27.1932C34.2798 26.3805 35.8263 26.3312 34.7632 25.3444C34.088 25.4087 33.1721 25.9009 32.5446 25.4368C32.2642 24.5875 32.6367 23.6292 32.5446 22.6636C33.4821 22.0681 34.4998 23.343 35.5028 23.2182C35.8001 23.1812 36.3991 22.9432 36.4272 22.4787C36.4603 21.9317 35.7851 21.931 35.5028 21.4618C35.1954 20.9511 35.5166 20.4966 35.0406 20.1676C34.0006 20.237 33.2222 20.5678 32.4522 20.9072C32.3004 21.6209 32.2858 22.107 32.4522 22.756C31.3313 23.1142 31.0521 24.314 30.5109 25.2519C31.5177 25.1387 31.3375 26.2126 31.8975 26.5461C32.0959 26.2823 31.8359 25.5601 32.3597 25.6217C33.2803 26.4452 32.0485 27.5872 31.5278 28.1176C31.2346 29.4511 33.1775 29.6518 33.0068 30.6136C32.9614 30.8697 32.1109 31.4001 31.6198 31.538C29.8723 32.0275 28.362 31.2849 26.9977 31.1682C26.938 31.9058 27.9044 32.4763 28.2919 33.2019C28.3686 33.3456 28.3628 33.6191 28.4768 33.7562C28.8319 34.1845 29.506 34.2797 29.5861 34.8655C29.714 35.8007 28.7984 36.5726 28.939 37.8237C28.2884 38.3032 26.8621 38.1064 26.3506 37.6388C26.2586 37.1769 26.6376 37.1862 26.628 36.8068C25.6404 35.5145 23.0516 35.8227 23.3929 33.2016C22.0763 32.5907 21.3753 34.0382 20.8045 34.7731C21.2802 35.1602 21.96 35.3431 22.4685 35.6975C22.5093 36.2421 22.7473 36.5896 22.6533 37.269C22.1399 37.6496 21.2394 37.6422 20.9894 38.2859C21.229 38.5085 21.2921 38.9075 21.2667 39.3952C20.2271 40.018 18.9491 38.631 17.8464 39.3027C17.9357 39.9282 17.99 40.632 17.8464 41.244C16.8468 41.8784 15.9675 42.8051 15.9051 44.1097C17.0968 44.949 18.8567 43.6756 19.9725 44.6644C20.6088 45.7244 19.3689 46.0841 19.233 46.9754C19.1298 47.6533 19.7337 48.4622 19.8801 49.2865C20.1994 51.0852 19.4864 51.6445 18.8632 52.6144C17.2882 53.0727 16.3095 52.2889 17.1993 51.0428C16.6739 50.6342 15.7533 50.1596 14.8882 50.3958C14.6248 50.7493 15.4598 50.6438 15.258 51.2277C14.9949 51.3652 14.6248 51.3961 14.426 51.5975C14.4156 52.5254 13.8359 52.9448 13.0394 52.7068C12.5425 52.5581 12.6041 51.8144 12.115 51.7824C11.6959 52.1645 11.5572 52.8266 11.5603 53.6312C10.9452 54.0002 9.55084 54.7606 8.87948 54.1859C8.74583 53.2291 9.82586 52.8574 10.1737 52.1522C10.5746 51.3402 10.4525 50.3153 10.451 49.194C10.0265 48.8239 9.54776 48.9552 9.43414 48.4545C9.24309 47.6117 10.2927 47.6795 10.3586 46.883C9.53351 46.7474 9.29239 47.9657 8.23239 47.8998C7.99512 49.9524 5.34088 48.728 4.90448 47.4376C4.66837 46.7397 4.98845 46.1873 4.53471 45.6808C4.19576 45.6808 3.8568 45.6808 3.51746 45.6808C3.19469 46.8429 3.13845 47.7173 4.34944 47.8994C4.99846 48.924 4.87675 51.6372 6.38317 51.4122C7.12578 51.3013 6.70671 50.3337 7.76979 50.3954C9.08324 52.3124 6.6524 53.2237 6.47561 54.8326C4.38411 55.4416 5.87319 57.6625 7.58491 57.6058C7.99859 57.3824 8.0086 56.8078 8.50895 56.6814C9.02277 56.5516 9.38676 56.9942 9.89596 56.9588C10.8208 56.8944 10.9945 56.178 11.6524 55.5721C12.2648 55.6118 12.5352 55.4242 12.9465 55.6646C13.0243 56.126 12.9311 56.2165 12.9465 56.7739C13.4141 56.8409 13.4939 56.52 13.871 56.4965C14.1768 56.9788 14.6101 58.048 13.9634 58.4378C13.4846 58.4236 12.883 58.5322 12.7617 58.1605C12.5094 57.8177 12.8083 57.3871 12.7617 56.9588C12.4739 57.01 12.1596 57.0342 11.9297 57.1436C11.6705 57.9629 11.32 58.6909 11.2826 59.732C10.7734 59.9623 10.29 60.2185 10.1733 60.8413C11.0673 61.9202 13.2312 62.9594 14.9803 62.0431C15.0122 60.8933 17.2848 60.9126 17.014 62.3204C16.4871 62.6254 15.8839 62.8542 15.7198 63.5221C15.1158 63.9042 14.5477 63.4821 13.871 63.4297C13.4057 64.0055 13.745 64.71 13.5012 65.2785C13.1114 66.1879 11.9628 66.2053 10.8204 66.3878C10.4756 67.2449 9.79812 67.7687 8.50933 67.682C8.06599 67.4786 8.12223 66.7753 7.76979 66.4803C7.07956 66.2588 6.20637 66.3112 5.82851 66.85C5.99645 67.4598 6.21446 67.9466 6.29072 68.4216C6.89545 68.7486 7.93542 67.9412 8.32444 68.6064C8.59907 68.9643 8.16922 69.4519 8.41689 69.8082C8.95459 69.6988 9.37674 69.4739 9.89596 69.346C10.01 68.4127 11.2641 68.6188 12.0221 68.3291C12.2594 67.9805 12.1523 67.288 12.5768 67.1274C13.5936 67.2464 14.9753 67.1189 15.0723 67.8669C15.1752 68.6527 13.9025 68.7794 12.9462 68.8838C12.227 69.5513 11.4875 70.1984 11.1894 71.2873C11.1616 72.1154 10.7418 73.0383 10.0801 73.5059C9.48883 73.512 9.84627 72.5687 9.52581 72.3041C8.79552 71.8323 7.38038 72.0461 6.84499 71.3797C6.73868 70.9976 6.73868 70.6525 6.84499 70.2704C6.66088 69.9176 5.72259 69.8602 5.5508 70.2704C5.86588 71.5881 7.59146 73.0475 6.56766 74.5227C6.13126 74.7665 5.60588 74.4033 4.99615 74.5227C4.36908 75.2345 3.23552 74.8675 2.22289 75.1698C1.88509 76.1878 0.356719 76.0153 0.374052 77.3884C0.671407 77.5225 0.892113 77.7332 1.20603 77.8506C1.62549 77.4381 2.14239 77.1227 2.6851 76.8338C2.74403 74.7103 5.38595 75.077 5.45836 76.9262C6.57229 77.1993 6.9201 78.2381 7.67697 78.8675C7.17855 79.3397 6.64123 79.9814 7.21476 80.8088C8.46773 80.9428 10.0288 82.7693 11.0973 81.3634C10.7545 80.9051 9.98185 80.8769 10.1729 79.8844C10.7372 79.5285 11.8022 79.27 12.6688 79.5146C12.9342 79.8655 13.0047 80.4113 13.3159 80.7163C14.7715 80.585 15.2684 82.2917 13.8706 82.5652C13.6472 82.8352 13.7285 83.4091 13.0386 83.2123C13.1588 82.3395 11.6863 81.8183 11.652 82.9349C12.3268 83.292 13.5185 84.3131 12.5764 85.1536C13.7234 84.9101 14.8674 84.3412 16.1816 84.7838C16.4925 85.4944 16.893 86.2736 17.5683 86.3553C17.1688 86.6958 16.8665 87.1326 16.3665 87.3722C15.9397 87.2135 15.7394 86.8283 15.1648 86.8179C15.3373 88.0928 14.8304 89.7464 13.131 89.4063C13.0914 88.6444 12.5479 88.3871 12.4839 87.6495C12.8167 87.1199 13.4064 86.8464 13.7781 86.3557C13.1776 86.0006 12.638 85.585 11.7444 85.5237C11.6597 85.2387 11.5695 84.959 11.3746 84.7842C10.7152 84.7349 10.0023 84.7391 9.52581 84.5068C9.4507 83.8728 9.16798 83.4468 8.4165 83.4896C8.23085 84.3393 7.64615 84.6031 7.21476 85.1536C6.38933 86.207 6.05808 87.5551 4.62638 87.7419C2.67701 87.9961 3.25439 85.833 2.31533 84.9687C1.716 84.4171 0.650223 84.4194 0.28161 85.1536C0.480746 85.9409 1.44214 85.6651 1.57541 86.3553C1.7187 87.0937 0.385224 87.7092 0.835878 88.7584C1.25148 88.4684 2.60229 87.9072 3.70158 88.2966C3.94732 88.5131 3.98237 88.9402 4.07134 89.3134C4.52046 89.7884 5.72105 89.5126 5.64286 90.5152C3.56561 91.804 1.87007 88.691 0.00389911 90.053C-0.0396256 91.2366 0.278143 92.059 1.1132 92.364C1.70637 91.5193 3.70813 91.7986 3.51669 93.1036C4.55859 93.2634 4.87713 94.1466 5.92019 94.3053C6.08427 94.1304 5.98759 93.6948 6.01263 93.3809C7.09843 92.8224 8.34101 93.3666 8.41612 94.3981C9.01083 94.4567 9.84781 94.6439 10.1725 94.2132C10.1594 92.6872 11.3989 91.6961 10.7272 90.3307C10.0096 89.939 9.17568 89.6636 9.24809 88.4818C8.42883 88.2835 7.6346 87.5694 8.04635 86.4481C9.06591 86.4458 9.46341 87.0652 10.0801 87.4654C10.2792 88.4684 11.2965 88.6525 11.6516 89.4987C12.0626 89.612 12.593 89.605 12.7609 89.9609C12.5687 90.583 12.6584 90.9142 12.6684 91.7177C12.5071 91.9873 12.2305 92.1425 12.0214 92.3648C11.8966 93.5034 11.4937 94.3638 10.9121 95.0456C11.221 95.5995 12.0318 95.6515 11.9289 96.6171C9.90982 97.4287 8.6738 95.4658 6.93705 95.6927C6.62351 95.9338 6.55341 96.4188 6.28995 96.71C5.5015 97.1856 3.92344 96.8432 3.88646 97.8193C3.86759 98.3192 4.83592 98.7587 4.71844 99.5757C4.66105 99.9762 4.40221 100.163 3.88646 100.5C4.07019 101.028 4.68223 100.874 5.18065 101.147C5.54734 101.348 5.6783 101.794 6.10507 101.887C6.78144 102.033 7.57027 101.596 8.50856 101.795C9.08478 102.882 11.3477 102.283 11.744 103.551C11.6135 104.082 10.8627 103.502 10.8196 104.013C10.6967 104.907 11.8785 105.296 12.4836 105.77C12.435 106.537 12.9111 106.742 13.3155 107.249C14.0404 106.753 14.53 107.642 15.1644 107.803C15.543 107.781 15.335 107.173 15.9039 107.341C15.8253 108.033 15.4848 108.463 15.2568 109.005C14.4622 109.073 14.0135 109.487 13.0382 109.375C12.675 109.214 12.8614 108.504 12.576 108.266C11.4848 108.129 11.6947 109.295 11.3743 109.93C12.0552 111.452 12.8125 114.166 10.7272 114.644C10.181 115.669 10.0689 117.128 9.34054 117.972C8.42074 118.131 7.21707 118.006 6.75216 118.619C6.39818 119.681 7.24095 120.182 7.21437 121.207C8.40918 121.245 8.04827 122.839 9.06321 123.056C11.0757 122.757 13.7855 122.575 15.6266 123.149C15.3454 124.89 13.6961 124.555 12.0214 124.35C11.7644 124.827 11.4255 125.863 11.9289 126.292C12.4616 126.525 13.5713 125.905 14.0551 126.384C14.5508 126.907 13.4966 127.493 13.8702 127.586C14.5196 127.78 15.5784 128.019 16.3661 127.77C16.7263 127.391 16.2802 126.205 17.0132 126.199C17.7797 126.649 18.7654 126.561 19.6016 126.199C19.0477 125.189 20.7063 125.099 20.526 126.107C21.2344 126.482 22.2023 126.399 22.3749 127.124C22.5297 127.774 21.8714 128.244 22.0051 128.973C21.6461 129.168 21.1565 129.233 20.8958 129.527C22.3772 129.679 23.3852 130.304 24.501 130.821C24.377 131.56 24.1956 132.242 23.8539 132.762C22.8405 132.762 22.1588 132.203 21.358 132.485C21.4732 133.572 22.663 133.584 22.6522 134.796C22.9095 135 23.4179 135.131 23.7615 134.981C24.0203 134.694 23.7488 134.374 24.0388 134.057C25.5834 134.057 27.2766 131.001 27.9214 133.779C27.255 134.499 26.9523 135.584 25.6103 135.628C25.2128 136.155 24.8388 136.705 24.6859 137.477C24.3269 137.703 23.8204 137.782 23.4842 138.031C23.8497 139.083 25.3827 138.968 25.1481 140.62C24.8535 141.109 23.8566 141.345 23.1144 141.082C23.0354 140.733 23.4214 140.648 23.2068 140.435C22.7462 139.91 21.5787 140.09 20.6185 140.065C20.697 141.342 22.0536 141.341 22.19 142.561C23.1595 142.862 24.6077 142.511 25.0553 141.729C25.6916 141.564 26.3992 141.47 26.7192 140.989C26.7262 140.349 26.4835 139.773 26.9041 139.418C27.7584 139.443 27.8285 140.143 28.753 139.88C28.9783 140.116 28.9456 140.611 28.9375 141.082C28.7749 141.351 28.1756 141.183 28.0134 141.451C28.0627 142.333 27.4969 142.599 26.9962 142.931C27.686 145.397 31.5513 144.117 33.3751 145.426C33.7872 146.007 33.6639 147.466 34.5768 147.367C35.3726 147.281 35.0779 145.833 36.4256 146.258C37.6632 146.649 36.3136 148.679 37.6274 149.309C38.2371 148.737 39.0071 149.159 39.5687 149.217C40.0478 148.679 40.002 147.616 40.7704 147.367C41.1733 147.37 41.6267 147.423 41.7873 147.183C41.7257 145.889 40.0394 146.219 39.5687 145.334C39.398 145.52 39.0679 145.875 38.7367 145.611C38.7371 145.56 38.662 145.507 38.6443 145.611C39.0244 146.272 37.5577 146.371 37.0727 146.166C36.9726 145.572 37.3578 145.465 37.2576 144.872C36.9075 144.499 36.3428 143.896 36.5181 143.3C37.3693 143.798 38.8299 143.389 39.3838 144.317C39.9465 144.079 40.5382 143.869 41.0477 143.578C41.0323 143.066 41.5932 142.708 41.8797 142.099C42.2818 141.243 42.3154 140.099 43.6361 140.342C43.9612 140.664 44.0679 141.205 44.0059 141.913C42.365 142.245 42.7999 144.652 41.6948 145.519C42.865 146.21 43.9015 145.398 44.8379 145.056C45.0459 145.765 44.2008 145.968 44.0059 146.535C43.6662 147.524 44.1977 148.558 43.9134 149.678C41.6213 149.852 43.2224 153.918 40.2158 153.376C40.0421 153.242 40.2046 152.771 40.0309 152.637C38.5141 152.373 36.9468 152.839 35.7786 151.989C35.9711 151.035 36.4884 149.873 35.5012 149.401C35.4708 150.821 31.4018 150.448 31.8035 151.897C32 152.605 33.2676 152.219 34.1146 152.451C34.2633 152.672 34.4189 152.887 34.3919 153.283C35.3329 153.328 35.1746 154.473 36.0559 154.577C36.5293 154.404 36.4661 153.694 36.6101 153.19C37.9367 152.197 39.705 153.136 39.7532 154.762C40.5624 155.08 41.3809 154.651 42.1567 154.762C42.8184 154.856 43.1858 155.472 43.7282 155.317C44.601 154.285 43.1396 153.607 43.3584 152.728C43.5028 152.147 44.4111 152.109 44.745 151.527C44.7951 150.96 44.7624 150.311 45.1148 150.047C46.3539 150.203 47.0191 149.24 47.7032 148.938C48.9284 148.397 51.0711 148.182 51.4933 149.677C52.5961 150.534 53.9615 150.366 55.4683 150.047C55.6224 149.702 55.7094 148.821 56.3927 148.568C56.6396 148.477 57.1203 148.651 57.4096 148.568C58.2647 148.323 58.1926 147.309 58.8887 147.366C59.3867 147.407 59.7179 148.045 59.6282 148.568C59.5454 149.052 58.8324 149.283 58.7962 149.677C58.438 149.758 58.6448 149.274 58.2416 149.4C59.0585 150.49 58.3544 152.114 57.7794 152.913C57.0144 153 56.6647 152.672 56.5776 152.081C56.6184 151.721 57.0001 151.703 57.2247 151.527C57.088 150.893 57.0668 150.143 56.3003 150.139C55.9783 150.896 55.2091 151.205 55.0061 152.081C55.3578 152.494 55.8831 152.243 56.023 152.728C56.1647 153.219 54.9164 154.721 54.0817 154.577C53.329 154.447 53.485 153.726 53.2497 152.728C52.447 152.668 52.3226 151.93 52.1404 151.249C51.6462 151.154 50.7141 151.258 50.2916 151.527C50.1178 152.501 51.5904 153.584 51.216 154.669C51.09 155.034 50.146 155.602 49.6445 154.947C49.4977 154.443 49.9653 154.226 49.7369 153.93C49.4496 153.782 48.6376 153.782 48.3503 153.93C48.4473 154.342 49.0455 155.01 48.9974 155.871C51.0611 156.722 53.138 155.939 55.2834 155.686C55.9559 157.332 58.1722 155.39 59.4433 156.333C60.6701 154.989 59.9044 153.023 60.0904 151.342C60.7849 151.156 61.7871 151.42 62.0317 151.989C61.9939 153.19 59.9983 154.818 62.0317 155.132C62.5821 156.276 63.4025 157.151 64.1582 158.09C65.1581 157.796 65.8349 157.178 66.2844 156.333C66.9612 156.458 67.9603 156.26 67.9484 157.073C67.1745 157.594 66.5517 158.265 66.6542 159.661C66.4173 159.856 66.0726 159.943 65.7301 160.032C66.6619 160.793 65.7267 161.519 65.5452 162.435C66.6133 162.394 67.126 161.797 67.3941 160.956C67.3459 160.572 66.9276 160.56 67.0243 160.032C67.7947 159.847 68.4568 158.75 69.2429 159.014C70.1596 159.323 69.4436 161.01 69.7976 162.065C69.1617 162.846 67.3128 162.415 66.747 163.267C67.4623 163.723 68.5535 163.802 69.5203 164.006C69.6412 164.759 69.5692 165.172 69.7051 165.947C68.7588 167.422 67.9526 169.433 68.4109 171.771C69.4101 172.383 70.9076 173.508 72.5708 173.158C73.3859 172.987 73.5484 172.126 74.3272 171.864C74.4235 171.652 74.3858 171.306 74.5121 171.125C75.2582 170.476 76.1614 170.192 76.6383 169.183C77.3998 167.571 76.5963 164.963 78.4871 164.376C78.4205 163.827 77.9086 163.723 78.0249 162.99C79.1835 162.462 79.4416 161.05 79.4115 159.569C80.0852 159.226 80.7169 158.841 81.7226 158.829C82.8273 160.745 84.3441 162.248 84.4959 165.115C83.5522 165.674 81.6656 165.484 81.9075 166.872C82.0088 167.453 82.8735 168.066 83.9412 167.982C84.1773 167.386 84.6453 167.022 85.2354 166.78C85.584 165.478 85.6768 163.249 85.2354 161.973C85.4511 161.634 85.9322 161.56 86.0674 161.141C86.0604 160.748 85.9129 160.495 85.9749 160.032C86.6979 159.57 86.9591 158.536 88.0087 158.83C88.9866 159.103 89.4611 162.145 91.429 160.679C91.7495 159.38 91.726 157.24 91.429 155.779C89.9522 155.549 88.7077 156.313 87.0842 156.241C86.5211 155.821 86.9302 154.828 87.1767 154.393C86.8959 154.088 86.8747 153.524 86.8069 153.006C85.5886 152.569 85.2281 150.813 86.6224 150.325C88.3391 150.409 87.3423 152.187 86.8997 152.914C87.3839 153.354 87.9917 153.67 88.6561 153.93C88.5675 154.482 88.8275 154.683 89.0259 154.948C89.3571 154.816 89.9307 154.928 90.2276 154.763C90.5704 154.145 90.4487 153.369 90.4125 152.544C90.5974 152.267 91.1713 152.379 91.6139 152.359C92.0568 152.903 91.9944 153.951 92.1685 154.763C94.4815 154.638 94.2265 157.081 96.236 157.259C96.7513 156.942 96.3635 155.722 96.6061 155.132C97.229 154.503 98.7808 153.6 99.934 154.393C99.9799 155.147 99.6244 155.501 99.1945 155.779C99.4175 156.08 99.3154 156.706 99.4718 157.073C99.8027 157.302 100.27 157.282 100.674 157.166C101.003 157.071 102.324 156.05 102.522 155.872C102.886 155.544 102.762 155.131 103.262 155.132C103.678 155.134 104.022 155.41 103.909 156.149C103.695 156.305 103.2 156.179 103.077 156.427C103.218 157.07 102.282 157.409 102.245 157.998C102.166 159.277 103.869 158.989 104.279 158.183C104.346 157.556 104.102 157.194 104.279 156.704C105.556 156.611 105.209 155.297 105.481 154.3C105.68 153.569 106.212 153.518 106.775 153.006C107.134 152.679 107.242 152.264 107.607 152.174C108.511 151.951 109.413 152.652 109.918 152.821C110.859 153.137 111.258 153.192 111.212 154.301C110.209 154.638 108.992 154.042 108.161 154.208C107.691 154.596 107.826 155.377 108.069 155.965C117.024 158.867 113.205 173.386 122.675 155.502C122.566 155.109 122.713 154.447 122.49 154.023C122.282 153.628 121.876 153.658 121.566 153.376C121.247 153.086 120.523 152.42 120.364 151.989C120.182 151.496 120.407 150.913 120.364 150.326C120.281 149.19 120.242 148.875 120.549 147.552C120.865 147.375 121.384 147.401 121.473 146.998C121.266 146.456 120.051 145.789 120.918 145.056C122.05 145.382 122.756 145.074 123.692 144.779C124.275 143.636 125.533 143.169 127.02 142.93C127.469 142.639 127.684 142.115 127.944 141.636C126.109 140.63 127.936 138.528 129.515 138.493C129.634 139.321 128.942 139.337 128.868 139.972C129.512 140.216 130.259 139.927 130.81 139.788C130.911 139.649 130.177 139.07 130.532 138.678C131.059 138.456 131.496 139.051 131.919 139.232C132.469 139.074 132.943 138.839 133.49 138.678C133.218 137.702 133.375 135.957 134.877 136.182C135.217 137.728 135.48 139.64 136.818 140.435C136.89 141.011 137.413 141.134 137.558 141.636C137.558 141.914 137.558 142.191 137.558 142.468C137.935 142.738 138.077 143.244 138.667 143.3C139.059 142.878 139.731 142.285 139.684 141.729C139.024 141.218 138.262 140.81 137.558 140.342C137.096 139.281 138.002 138.824 137.928 137.846C138.208 137.511 138.738 137.424 139.407 137.476C140.204 138.466 141.419 139.039 143.289 138.956C143.468 137.997 142.607 136.975 143.289 135.997C143.104 135.322 142.122 135.378 141.44 135.073C141.04 134.894 140.851 134.478 140.424 134.426C139.87 134.359 139.47 134.76 138.852 134.703C138.262 133.527 139.762 132.519 141.071 132.947C141.333 133.147 141.191 133.75 141.718 133.686C142.207 133.19 142.465 132.462 143.289 132.299C143.557 131.89 143.264 130.919 143.844 130.82C144.308 130.992 144.248 131.408 144.768 131.56C145.487 131.77 146.566 131.231 147.079 131.93C147.742 131.502 148.977 131.25 148.466 130.266C147.911 129.195 144.896 130.112 144.584 128.695C144.823 127.794 146.061 127.892 147.079 127.77C147.351 126.194 148.005 124.998 149.76 124.905C149.74 124.114 149.907 122.361 149.206 121.946C148.766 122.369 148.921 122.967 148.374 123.056C147.675 123.169 147.735 122.538 147.357 121.854C146.833 120.905 145.379 120.27 146.155 119.081C146.552 118.915 147.24 118.967 147.542 119.173C147.714 119.543 147.683 119.758 147.727 120.097C148.26 120.332 148.89 120.087 149.39 120.005C149.347 119.653 149.43 119.428 149.668 119.358C149.884 119.358 150.099 119.358 150.315 119.358C151.095 121.101 153.308 121.812 153.458 123.888C156.129 124.61 154.621 121.951 154.752 120.56C155.011 120.449 155.39 120.458 155.769 120.467C156.106 120.87 156.044 121.672 156.046 122.408C156.35 122.752 156.714 123.035 157.156 123.24C158.734 122.828 159.94 121.165 159.189 119.265C157.884 119.705 156.269 118.868 155.215 119.265C154.723 119.451 154.739 119.994 154.197 120.19C153.82 120.093 153.545 120.235 152.996 120.19C152.827 119.695 152.576 118.95 152.811 118.341C151.994 117.577 150.737 116.298 151.332 114.736C151.937 114.79 153.063 115.091 154.013 115.106C153.538 117.184 154.649 118.06 156.046 118.526C157.805 117.906 155.83 115.735 156.694 114.551C157.374 114.442 158.404 114.426 159.282 114.551C159.708 116.032 161.44 114.916 161.039 113.627C160.957 113.364 160.5 113.074 160.299 112.702C159.704 111.6 159.52 110.099 159.19 109.467C158.814 109.269 158.395 109.434 158.08 109.559C158.137 109.935 158.364 110.139 158.265 110.669C156.797 111.203 156.559 112.969 154.475 112.888C154.469 113.356 154.634 113.653 154.567 114.181C154.092 114.676 153.12 114.361 152.441 114.274C151.673 112.484 149.513 112.086 149.483 109.559C150.193 109.294 150.554 107.762 151.516 108.358C151.112 109.307 150.781 110.789 151.701 111.409C151.917 111.409 152.133 111.409 152.348 111.409C152.727 110.617 153.732 110.45 154.105 109.652C153.404 109.337 153.615 108.108 153.458 107.248C154.21 106.213 154.701 104.916 155.306 103.736C154.778 103.385 154.211 102.938 154.382 102.256C154.69 101.03 157.002 102.364 158.08 101.702C158.241 100.948 159.171 100.732 159.189 100.131C159.207 99.5603 158.403 99.5737 158.635 98.7437C158.81 98.7337 158.699 98.4382 158.912 98.4663C159.097 98.4663 159.282 98.4663 159.467 98.4663C159.874 99.514 161.725 99.8761 161.87 98.3743C162.231 97.9953 163.046 98.0708 163.072 97.357C161.899 96.7739 161.8 95.1157 161.131 94.0291C160.415 94.0365 159.354 94.813 158.82 94.1212C159.149 92.2924 161.674 93.2072 163.257 93.1043C163.414 93.3786 163.492 93.7322 163.442 94.2136C163.67 94.6635 164.381 94.6304 164.366 95.3229C164.755 95.5814 165.325 95.6581 165.567 96.0629C165.657 96.725 165.613 97.0431 165.567 97.7264C166.238 98.2626 168.285 98.2056 169.358 97.9113C169.212 96.9172 169.162 95.8271 168.896 94.9532ZM7.95468 91.7177C7.52251 92.0328 6.50373 92.2354 6.10584 91.8098C6.66858 90.8033 6.14012 89.8138 6.38317 88.5747C6.65471 88.406 7.1462 88.3135 7.49247 88.4822C7.70894 89.4983 8.0787 90.3615 7.95468 91.7177ZM13.7785 103.828C13.3949 103.657 13.0968 103.4 12.8541 103.088C12.9015 100.388 15.6046 102.781 13.7785 103.828ZM13.871 99.6677C13.9823 100.488 13.5077 100.722 13.2239 101.147C12.5009 100.797 12.0075 101.301 11.7448 101.701C10.9379 101.768 10.5115 101.456 10.5431 100.685C10.7318 100.348 11.1563 100.667 11.375 100.5C11.4767 99.5845 12.4427 99.5337 12.4843 98.5584C13.6479 98.4829 14.2219 96.6761 15.35 97.4491C15.295 98.627 14.5878 99.152 13.871 99.6677ZM19.9721 62.8758C19.9721 63.1531 19.9721 63.4305 19.9721 63.7078C19.6455 64.0591 18.7708 63.8626 18.4006 64.17C18.3744 64.4516 18.6968 64.5298 18.4931 64.7247C18.0852 64.4851 18.1214 63.8022 17.7535 63.5229C17.4492 62.2145 19.488 62.3007 19.9721 62.8758ZM16.3669 60.1026C15.8234 60.1222 15.3762 60.0455 14.9803 59.9177C14.4029 59.9458 14.2207 60.7951 13.7785 60.6572C13.4415 60.4053 13.6183 59.7463 13.871 59.5479C16.5009 60.0205 15.2738 56.9649 15.8122 55.7578C16.41 56.2154 17.2986 55.6846 17.7535 55.7578C18.1614 57.3994 17.0799 58.9832 16.3669 60.1026ZM18.2157 106.046C18.4303 105.833 18.0447 105.748 18.1233 105.399C18.8513 105.223 19.4687 103.963 20.157 104.844C20.1069 106.243 19.2257 106.81 18.2157 107.248C17.631 107.031 16.9951 106.866 16.7367 106.324C16.8303 105.524 17.7978 106.373 18.2157 106.046ZM14.1483 118.064C13.7046 117.984 13.1892 117.975 12.9465 117.694C12.898 116.401 13.7566 115.279 14.9803 115.845C15.59 115.557 16.2664 115.124 16.7367 115.845C16.6562 116.535 16.3781 117.027 16.182 117.602C15.2518 117.645 14.3863 117.264 14.1483 118.064ZM16.7367 119.913C16.3761 120.137 16.5129 120.859 16.3669 121.299C16.0434 121.626 14.9452 121.9 14.6105 121.392C14.3987 121.014 14.8212 120.585 14.8878 120.19C14.763 119.762 14.396 119.228 14.7954 118.803C15.5114 118.787 15.8577 119.411 16.6442 119.45C17.7528 119.506 19.3058 118.463 20.0646 119.542C19.2472 120.575 17.7697 120.053 16.7367 119.913ZM18.3082 123.703C18.3513 123.099 19.0716 123.172 19.2326 122.685C18.8424 121.808 19.5172 121.101 20.2495 121.669C20.7641 123.034 19.3643 124.786 18.3082 123.703ZM19.0477 58.6235C18.8097 57.5739 20.0611 57.047 20.5268 57.7915C20.598 58.583 19.6544 59.0972 19.0477 58.6235ZM33.2838 34.1264C32.4244 34.2465 32.025 33.906 31.9896 33.2023C32.5408 32.165 34.2432 33.16 33.2838 34.1264ZM33.1913 132.947C33.2487 133.545 33.5395 134.442 33.1913 134.888C32.2923 134.493 31.3849 134.107 31.1576 133.039C31.4773 132.311 32.6136 132.677 33.1913 132.947ZM22.5605 50.2113C22.0243 50.2544 21.5887 50.1966 21.3588 49.9339C21.6361 49.1686 21.4974 48.1721 21.1739 47.9002C21.5105 47.7296 22.3059 47.7847 22.6529 47.9002C22.6133 48.5542 23.0616 49.6682 22.5605 50.2113ZM23.9471 41.7066C23.1159 41.4901 22.4608 41.0976 21.821 40.6897C22.2451 40.2202 22.7365 39.8181 22.9303 39.1182C24.043 39.0416 24.3843 37.3745 25.796 38.1938C25.8684 40.0534 24.429 40.4012 23.9471 41.7066ZM26.2582 50.2113C24.8665 50.5802 25.105 47.1822 26.5355 48.4549C26.6946 49.1462 26.8614 50.0514 26.2582 50.2113ZM27.3675 46.1438C27.0097 46.5613 26.3811 46.7324 25.9809 46.6985C25.8033 46.4446 25.6277 46.1889 25.6111 45.774C25.7093 45.4717 26.17 45.5318 26.2582 45.2194C26.3202 44.6952 26.0506 44.5026 25.9809 44.1101C26.8359 43.5327 28.2033 43.7835 28.1995 44.6647C28.1979 45.0206 27.837 45.0064 27.5524 45.4967C27.4607 45.655 27.453 46.0441 27.3675 46.1438ZM30.6954 127.031C29.9493 127.823 28.2703 127.229 27.6448 126.568C27.6891 125.226 28.9625 124.744 30.2332 125.367C30.4242 125.884 30.7898 126.227 30.6954 127.031ZM31.1576 137.384C31.1033 136.684 31.9861 136.426 32.7291 136.83C33.0265 138.323 31.2262 138.267 31.1576 137.384ZM31.8047 142.283C31.7596 141.741 31.2296 141.197 31.5274 140.62C31.7824 140.051 32.9903 140.449 33.5611 140.435C33.7826 141.076 34.3199 141.402 34.3006 142.284C33.5784 142.646 32.6475 142.258 31.8047 142.283ZM33.3762 39.0258C32.9132 38.7881 32.9221 37.8156 33.1913 37.3618C32.8709 36.6654 32.5762 35.9432 32.4518 35.0508C32.6556 34.6217 33.7144 34.5447 34.1158 34.8659C34.3303 36.078 33.2853 37.477 34.578 38.1014C34.3592 38.5913 33.9729 38.9137 33.3762 39.0258ZM39.7547 30.3362C39.6684 29.5416 39.9912 29.1553 40.2169 28.6723C40.8733 28.7247 41.0597 29.2473 41.5111 29.5043C41.535 30.3605 41.3663 31.0238 41.1413 31.6308C40.2647 31.6135 40.5736 30.411 39.7547 30.3362ZM44.3768 37.4543C44.1519 37.7643 43.3946 37.8421 43.0826 37.5467C43.1319 37.1338 43.3607 36.9004 43.2675 36.345C42.682 36.0345 42.6065 36.791 42.1582 36.8996C41.3828 36.9485 41.2442 35.7526 41.6036 35.2357C42.6208 35.5989 42.818 34.3794 43.5448 34.681C44.1677 34.9395 44.4053 36.1774 44.3768 37.4543ZM45.0239 21.7391C44.6372 21.9071 43.9485 21.773 43.6373 22.0165C43.5167 22.2345 43.598 22.6551 43.4524 22.8484C43.0468 23.1373 41.7834 23.162 41.6036 22.6636C42.2645 21.6101 43.2837 19.7116 44.9315 20.5374C44.9199 20.9568 45.2558 21.3925 45.0239 21.7391ZM55.0076 138.586C54.5747 138.575 55.1082 138.451 55.0076 138.216C54.8281 137.934 54.4553 137.844 53.9908 137.846C53.8837 137.368 53.5852 137.081 53.3437 136.737C53.4061 136.245 54.0254 136.309 54.1757 135.905C53.6091 135.962 52.8938 134.822 53.8059 134.426C54.4345 134.506 54.8882 134.761 55.1925 135.165C55.3139 135.133 55.3381 135.003 55.4698 134.981C55.1401 134.514 55.1359 133.824 55.9321 134.149C56.5229 135.434 56.3311 138.431 55.0076 138.586ZM62.6803 16.4699C62.3175 16.3706 62.2574 15.9684 61.9408 15.8228C61.0002 16.0713 59.3748 15.8695 60.0919 14.806C60.8596 13.6678 63.0955 15.3837 63.6047 15.9153C63.5712 16.3748 63.052 16.3486 62.6803 16.4699ZM66.1007 152.822C65.9243 153.129 66.1296 153.588 65.6385 153.746C64.4903 154.116 63.9888 152.64 64.4367 151.528C64.6262 151.255 64.8797 151.046 65.1763 150.88C64.9351 149.263 66.6299 149.91 67.3949 150.233C67.6194 150.686 67.9172 151.066 67.9495 151.712C67.4053 152.038 66.4577 152.2 66.1007 152.822ZM70.6303 12.9572C69.4964 13.1054 69.7113 11.9041 69.521 11.1083C69.2267 10.5706 68.4194 10.546 68.0419 10.0914C68.1791 8.47025 69.9077 9.20439 69.7059 10.6457C70.331 11.0459 70.7759 12.092 70.6303 12.9572ZM79.967 156.889C79.4254 156.907 79.1812 156.627 78.9501 156.335C78.9359 155.319 79.8306 154.317 80.7065 155.04C80.7612 155.958 80.4061 156.466 79.967 156.889ZM81.0763 14.9909C80.5574 15.5074 79.539 15.1126 79.135 14.7135C77.8477 14.645 76.2681 14.8688 75.7146 14.0665C76.2107 13.5765 77.2176 13.5977 77.1013 12.4949C76.7519 11.9199 75.6045 12.1429 75.3449 11.4781C75.4689 10.8013 76.0436 10.5745 76.1768 9.90656C76.9949 10.1365 77.5515 10.6276 77.8408 11.3856C77.8069 11.8136 77.4957 11.9649 77.5635 12.4949C78.0557 13.2349 79.016 13.5076 79.5048 14.2513C80.0833 14.306 79.8399 13.5384 80.2443 13.4194C81.1156 13.3184 80.9719 14.2325 81.1687 14.806C81.079 14.8083 81.0971 14.9188 81.0763 14.9909ZM81.3536 154.116C81.4379 153.492 81.7419 153.086 82.0007 152.637C82.7683 152.596 83.9231 152.197 84.3117 152.821C83.8584 153.801 82.3793 155.378 81.3536 154.116ZM93.0013 12.2176C92.4855 12.5758 91.803 13.2237 90.9676 12.9572C91.0473 12.2977 91.3624 11.8733 91.3373 11.1083C92.5841 11.1946 92.5564 9.19399 93.7408 9.81412C93.2193 10.4396 94.3174 10.7351 94.2955 11.2932C94.2743 11.8317 93.6869 12.0219 93.0013 12.2176ZM99.01 151.158C97.9716 151.087 98.0779 149.872 96.8838 149.957C96.4967 149.388 96.0846 148.845 95.867 148.107C95.6655 148.003 95.3235 148.547 94.7573 148.385C94.4908 147.415 95.4229 145.363 96.2364 146.351C96.2583 146.804 96.0738 147.051 96.1443 147.553C96.6932 147.57 97.2359 147.326 97.7158 147.553C97.9639 148.168 98.022 148.972 98.2701 149.586C98.9118 149.729 99.5188 150.419 99.01 151.158ZM100.766 154.301C99.9857 153.818 99.4976 153.043 99.2869 151.99C99.9302 151.605 101.726 151.171 102.061 152.082C102.457 152.071 103.01 151.852 103.354 152.082C103.193 153.522 101.556 153.488 100.766 154.301ZM103.262 12.7723C101.652 12.9487 99.9364 13.0207 98.2705 13.142C98.1723 12.3158 97.6407 11.923 96.9763 11.663C96.7945 11.3413 96.9948 10.7297 97.1612 10.4612C99.3682 10.8264 101.942 10.6954 103.909 11.1083C103.795 11.765 103.353 12.0928 103.262 12.7723ZM110.658 150.326C109.798 149.589 108.528 150.382 107.7 149.678C107.912 148.531 107.532 146.84 108.901 147.09C109.139 147.53 108.794 148.553 109.271 148.754C110.034 148.802 110.865 148.445 111.305 148.939C111.453 149.421 111.026 150.06 110.658 150.326ZM115.28 15.5455C114.973 15.886 114.398 15.958 114.356 16.5624C113.902 16.6302 113.493 16.7061 113.062 16.5624C112.913 15.643 113.666 15.6264 113.709 14.8984C112.797 14.2791 112.426 16.5447 111.213 15.638C111.135 14.9666 111.667 14.2094 112.507 14.1589C113.619 13.1917 112.418 11.8767 112.23 10.831C113.636 9.48518 114.047 11.8417 115.095 12.0327C115.325 13.2241 115.566 14.2005 115.28 15.5455ZM115.372 11.663C115.407 11.0197 115.287 10.222 115.464 9.72168C115.526 9.72168 115.588 9.72168 115.649 9.72168C116.285 10.0106 116.41 10.8098 116.481 11.663C116.281 11.953 115.594 11.8775 115.372 11.663ZM123.969 141.082C123.544 141.492 122.758 140.975 122.397 141.451C121.792 141.349 121.708 140.724 121.104 140.62C121.232 140.162 121.532 139.877 121.658 139.418C121.069 139.083 120.363 138.864 119.625 138.678C119.696 138.237 119.295 138.268 119.347 137.846C119.625 137.636 120.172 137.775 120.271 138.031C121.283 137.872 121.557 136.975 122.397 136.644C122.672 136.831 122.697 137.269 122.952 137.476C123.266 137.501 123.702 137.404 123.877 137.569C124.4 138.803 123.802 139.848 123.969 141.082ZM128.869 128.787C128.77 128.401 128.845 128.379 128.869 127.955C130.874 126.667 130.955 130.115 128.869 128.787ZM132.844 27.8403C132.28 27.7902 132.045 27.1897 131.55 27.2857C131.36 26.9421 131.582 26.7048 131.642 26.3612C131.796 26.3612 131.95 26.3612 132.104 26.3612C132.231 25.5242 132.013 24.5293 132.936 24.3275C133.302 24.3926 133.287 24.8394 133.86 24.6973C134.423 25.5177 133.537 27.0819 134.877 27.0083C134.354 27.298 133.548 27.9031 132.844 27.8403ZM134.693 22.756C134.256 22.0488 134.209 20.7558 134.693 20.0752C135.469 20.346 136.435 20.428 137.096 20.8147C137.015 21.5115 136.965 22.1663 137.096 22.8484C136.535 23.1385 135.137 23.1439 134.693 22.756ZM140.054 26.3612C140.644 26.3878 140.868 26.7795 141.164 27.1008C141.162 27.5688 141.477 28.9673 140.979 29.4118C140.42 29.4465 140.043 29.3001 139.777 29.0421C139.913 27.9901 139.777 27.179 140.054 26.3612ZM140.332 131.006C139.324 131.292 139.235 132.497 137.928 132.485C137.413 131.588 136.889 128.648 138.945 129.342C139.123 129.935 139.767 130.061 140.332 130.266C140.332 130.513 140.332 130.759 140.332 131.006ZM141.349 122.963C141.331 123.042 141.385 123.051 141.441 123.055C140.037 123.429 138.782 121.553 140.054 120.56C140.399 120.411 140.951 120.471 141.348 120.375C142.249 120.978 141.53 122.131 141.349 122.963ZM155.954 48.0851C157.025 48.1606 157.557 50.9377 156.509 51.2281C155.487 51.5112 155.466 49.6393 154.937 49.2868C155.252 48.5203 155.393 48.0454 155.954 48.0851ZM156.879 54.0014C156.727 54.764 157.324 55.249 156.879 55.7578C156.729 55.9088 156.492 55.6753 156.139 55.7578C156.383 56.2993 156.015 56.7608 156.139 57.1444C156.308 57.6686 157.106 57.6563 156.879 58.2537C156.286 58.5842 155.257 59.046 154.475 58.6235C154.462 57.6813 154.277 56.911 153.828 56.4049C154.533 56.2781 154.742 55.6545 155.584 55.6653C155.302 55.1011 154.58 55.088 154.568 54.4636C154.549 53.476 156.395 52.7611 156.879 54.0014ZM151.887 52.3374C152.706 52.1171 153.932 52.255 154.29 52.7996C154.428 53.9875 153.246 53.9132 152.349 53.8165C152.061 53.4991 151.572 52.9572 151.887 52.3374ZM147.265 31.4455C146.617 31.8303 144.496 31.8284 144.214 30.9833C144.675 30.0439 147.192 30.3362 147.265 31.4455ZM142.92 41.799C144.075 41.8865 145.149 41.2066 145.416 42.3537C145.104 43.0593 144.508 43.4796 144.214 44.2025C142.667 44.4725 142.142 42.767 142.92 41.799ZM146.34 125.089C146.198 125.778 145.779 126.192 145.508 126.753C143.899 126.651 142.536 125.866 142.735 124.257C143.597 124.102 143.38 122.869 144.399 122.871C144.557 124.099 145.579 124.464 146.34 125.089ZM146.248 39.0258C144.669 39.7538 144.146 37.9581 143.475 37.1769C144.224 35.8273 145.788 37.2663 146.71 37.4543C146.467 37.8891 146.303 38.4033 146.248 39.0258ZM147.265 37.6392C146.9 37.1777 147.026 36.605 147.265 36.1601C146.71 35.8801 146.551 36.5533 145.878 36.4374C145.149 35.1182 146.551 33.8737 148.189 34.0339C148.335 33.7793 148.539 33.5825 148.743 33.3868C149.555 33.4223 150.639 32.2721 151.424 33.2944C151.729 34.8647 150.704 36.1193 150.222 37.4543C148.96 37.388 148.19 37.2116 147.265 37.6392ZM149.853 54.8334C149.563 53.6231 151.275 54.0118 151.98 54.0938C151.859 55.2309 153.168 54.9397 153.089 56.0351C151.572 56.9718 150.954 55.1727 149.853 54.8334ZM152.072 104.197C151.103 104.339 150.753 103.131 150.685 102.071C151.887 101.041 152.696 103.145 152.072 104.197ZM152.811 66.8508C151.808 66.8793 151.347 64.4142 152.719 64.17C153.724 64.4608 153.961 66.8181 152.811 66.8508ZM154.475 82.4735C155.161 82.5062 155.89 84.2388 155.4 85.3388C154.929 85.8191 153.801 85.595 153.458 85.1543C153.486 84.025 153.655 82.4342 154.475 82.4735ZM154.383 92.4572C154.95 91.4073 156.827 91.9962 156.786 93.0115C156.737 94.2471 153.576 95.3738 154.383 92.4572ZM156.971 63.8002C156.217 63.0965 155.334 63.67 154.66 63.5229C155.078 62.9182 155.063 62.3058 154.66 61.6741C155.685 59.7293 158.126 61.914 156.971 63.8002ZM158.728 72.8595C157.708 71.8512 159.111 70.0655 160.299 70.733C159.812 71.4174 159.515 72.291 158.82 72.7667C159.018 72.9697 158.893 73.4947 159.19 73.5987C158.952 73.8602 158.791 73.2636 158.543 73.2289C158.475 72.977 158.726 73.0433 158.728 72.8595ZM158.635 81.2718C159.316 81.182 159.737 80.8327 159.929 80.2549C160.596 80.2961 160.594 81.0071 160.576 81.734C160.133 81.9994 159.686 82.2609 159.282 82.5659C158.805 82.4076 158.362 81.8927 158.635 81.2718ZM160.576 91.8098C157.62 92.2204 158.857 88.5354 160.946 89.8689C161.19 90.566 160.794 91.2813 160.576 91.8098Z"/>
</svg>
