<svg width="193" height="151" viewBox="0 0 193 151" fill="none" xmlns="http://www.w3.org/2000/svg">
<path d="M1.5 151C1.5 150.363 1.51367 149.73 1.54073 149.1L0.54165 149.057C0.513977 149.701 0.5 150.349 0.5 151H1.5ZM1.8677 145.318C2.03255 144.054 2.25163 142.807 2.52252 141.58L1.54603 141.365C1.26887 142.62 1.04474 143.896 0.876101 145.189L1.8677 145.318ZM3.50226 137.915C3.88422 136.703 4.31786 135.513 4.80061 134.349L3.87688 133.966C3.38296 135.157 2.93928 136.374 2.54847 137.615L3.50226 137.915ZM6.40681 130.91C6.9935 129.785 7.62792 128.69 8.3074 127.625L7.46451 127.087C6.76943 128.176 6.1204 129.297 5.52019 130.448L6.40681 130.91ZM10.4869 124.518C11.2586 123.514 12.0733 122.544 12.928 121.612L12.1909 120.936C11.3166 121.89 10.4834 122.882 9.69397 123.909L10.4869 124.518ZM15.6119 118.928C16.5442 118.073 17.5139 117.259 18.5182 116.487L17.9088 115.694C16.8816 116.483 15.8897 117.317 14.9361 118.191L15.6119 118.928ZM21.6252 114.307C22.6895 113.628 23.7854 112.993 24.9101 112.407L24.4476 111.52C23.297 112.12 22.1759 112.769 21.0871 113.465L21.6252 114.307ZM28.3489 110.801C29.513 110.318 30.7026 109.884 31.9151 109.502L31.6147 108.548C30.3741 108.939 29.1569 109.383 27.9658 109.877L28.3489 110.801ZM35.5803 108.523C36.8075 108.252 38.0541 108.033 39.3179 107.868L39.1885 106.876C37.8957 107.045 36.6203 107.269 35.3648 107.546L35.5803 108.523ZM43.1003 107.541C43.7301 107.514 44.3634 107.5 45 107.5V106.5C44.3491 106.5 43.7015 106.514 43.0574 106.542L43.1003 107.541ZM45 107.5H46.9635V106.5H45V107.5ZM50.8906 107.5H54.8177V106.5H50.8906V107.5ZM58.7448 107.5H62.6719V106.5H58.7448V107.5ZM66.599 107.5H70.526V106.5H66.599V107.5ZM74.4531 107.5H78.3802V106.5H74.4531V107.5ZM82.3073 107.5H86.2344V106.5H82.3073V107.5ZM90.1615 107.5H94.0885V106.5H90.1615V107.5ZM98.0156 107.5H101.943V106.5H98.0156V107.5ZM105.87 107.5H109.797V106.5H105.87V107.5ZM113.724 107.5H117.651V106.5H113.724V107.5ZM121.578 107.5H125.505V106.5H121.578V107.5ZM129.432 107.5H133.359V106.5H129.432V107.5ZM137.286 107.5H139.25V106.5H137.286V107.5ZM139.25 107.5C139.958 107.5 140.662 107.486 141.363 107.459L141.324 106.46C140.636 106.487 139.945 106.5 139.25 106.5V107.5ZM145.571 107.132C146.978 106.967 148.368 106.748 149.739 106.477L149.545 105.496C148.199 105.762 146.835 105.977 145.455 106.139L145.571 107.132ZM153.846 105.495C155.206 105.112 156.545 104.676 157.859 104.191L157.513 103.253C156.223 103.729 154.91 104.156 153.575 104.532L153.846 105.495ZM161.759 102.574C163.04 101.982 164.294 101.342 165.518 100.655L165.029 99.7828C163.827 100.457 162.597 101.086 161.34 101.666L161.759 102.574ZM169.115 98.4463C170.286 97.6624 171.424 96.8336 172.528 95.9626L171.908 95.1777C170.825 96.0326 169.708 96.846 168.558 97.6154L169.115 98.4463ZM175.736 93.2201C176.769 92.2645 177.765 91.2689 178.72 90.2356L177.986 89.5567C177.048 90.5708 176.071 91.548 175.057 92.4859L175.736 93.2201ZM181.463 87.0276C182.334 85.9241 183.162 84.7857 183.946 83.6147L183.115 83.0584C182.346 84.2076 181.533 85.325 180.678 86.408L181.463 87.0276ZM186.155 80.0182C186.842 78.794 187.482 77.5401 188.074 76.259L187.166 75.8398C186.586 77.0969 185.957 78.3274 185.283 79.5288L186.155 80.0182ZM189.691 72.359C190.176 71.0446 190.612 69.706 190.995 68.3456L190.032 68.0746C189.656 69.4095 189.229 70.723 188.753 72.0127L189.691 72.359ZM191.977 64.2394C192.248 62.8679 192.467 61.4777 192.632 60.0709L191.639 59.9545C191.477 61.3352 191.262 62.6995 190.996 64.0453L191.977 64.2394ZM192.959 55.863C192.986 55.162 193 54.4576 193 53.75H192C192 54.4447 191.987 55.1362 191.96 55.8244L192.959 55.863ZM193 53.75V51.9219H192V53.75H193ZM193 48.2656V44.6094H192V48.2656H193ZM193 40.9531V37.2969H192V40.9531H193ZM193 33.6406V29.9844H192V33.6406H193ZM193 26.3281V24.5H192V26.3281H193ZM193 24.5C193 23.8527 192.975 23.2112 192.926 22.5764L191.929 22.6538C191.976 23.2629 192 23.8786 192 24.5H193ZM192.328 18.7785C192.027 17.519 191.628 16.2972 191.141 15.1216L190.217 15.5046C190.684 16.6319 191.067 17.8034 191.356 19.0112L192.328 18.7785ZM189.393 11.6969C188.719 10.6006 187.962 9.56136 187.13 8.58817L186.37 9.23797C187.168 10.1717 187.895 11.1686 188.54 12.2202L189.393 11.6969ZM184.412 5.86976C183.439 5.03779 182.399 4.28071 181.303 3.60747L180.78 4.45962C181.831 5.10539 182.828 5.83166 183.762 6.62986L184.412 5.86976ZM177.878 1.85927C176.703 1.37177 175.481 0.973137 174.221 0.671778L173.989 1.64433C175.197 1.9333 176.368 2.31553 177.495 2.78299L177.878 1.85927ZM170.424 0.0744291C169.789 0.025112 169.147 0 168.5 0V1C169.121 1 169.737 1.02411 170.346 1.07143L170.424 0.0744291Z" fill="#131313"/>
</svg>
